<?xml version="1.0" encoding="UTF-8"?><svg id="_图层_1" xmlns="http://www.w3.org/2000/svg" xmlns:xlink="http://www.w3.org/1999/xlink" viewBox="0 0 284.16 269.76"><defs><style>.cls-1{fill:url(#_未命名的渐变_14);filter:url(#drop-shadow-2);}.cls-2{fill:url(#_未命名的渐变_19);filter:url(#drop-shadow-3);}.cls-3{fill:url(#_未命名的渐变_10);filter:url(#drop-shadow-4);}.cls-4{fill:#c58c00;filter:url(#drop-shadow-1);}.cls-5{fill:#a2740e;}</style><filter id="drop-shadow-1" filterUnits="userSpaceOnUse"><feOffset dx="2" dy="6"/><feGaussianBlur result="blur" stdDeviation="5"/><feFlood flood-color="#000" flood-opacity=".75"/><feComposite in2="blur" operator="in"/><feComposite in="SourceGraphic"/></filter><linearGradient id="_未命名的渐变_14" x1="107.11" y1="3.48" x2="178.19" y2="315.39" gradientUnits="userSpaceOnUse"><stop offset="0" stop-color="#df9e00"/><stop offset=".21" stop-color="#df9f01"/><stop offset=".28" stop-color="#e1a208"/><stop offset=".34" stop-color="#e5a914"/><stop offset=".38" stop-color="#eab325"/><stop offset=".42" stop-color="#f1bf3b"/><stop offset=".45" stop-color="#face55"/><stop offset=".47" stop-color="#ffd764"/></linearGradient><filter id="drop-shadow-2" filterUnits="userSpaceOnUse"><feOffset dx="2" dy="0"/><feGaussianBlur result="blur-2" stdDeviation="5"/><feFlood flood-color="#000" flood-opacity=".75"/><feComposite in2="blur-2" operator="in"/><feComposite in="SourceGraphic"/></filter><linearGradient id="_未命名的渐变_19" x1="-38.49" y1="-160.83" x2="228.93" y2="302.36" gradientUnits="userSpaceOnUse"><stop offset=".52" stop-color="#fed45c"/><stop offset=".89" stop-color="#f5b301"/></linearGradient><filter id="drop-shadow-3" filterUnits="userSpaceOnUse"><feOffset dx="0" dy="-2"/><feGaussianBlur result="blur-3" stdDeviation="5"/><feFlood flood-color="#000" flood-opacity=".75"/><feComposite in2="blur-3" operator="in"/><feComposite in="SourceGraphic"/></filter><linearGradient id="_未命名的渐变_10" x1="149.79" y1="152.1" x2="231.95" y2="294.4" gradientUnits="userSpaceOnUse"><stop offset="0" stop-color="#1491dd"/><stop offset=".93" stop-color="#0062b4"/></linearGradient><filter id="drop-shadow-4" filterUnits="userSpaceOnUse"><feOffset dx="-2" dy="-2"/><feGaussianBlur result="blur-4" stdDeviation="5"/><feFlood flood-color="#000" flood-opacity=".75"/><feComposite in2="blur-4" operator="in"/><feComposite in="SourceGraphic"/></filter></defs><rect class="cls-5" x="159.48" y="20.61" width="105.12" height="65.82" rx="17.32" ry="17.32"/><path class="cls-4" d="M212.01,49.04c-.38,0-.73,0-1.03,0-.74,0-10.93-14.33-16.62-21.74-.04-.05-.1-.1-.15-.15-2.82-3.96-7.25-6.54-12.24-6.54H116.68c-10.07,0-18.31,8.81-18.31,19.59v16.1h113.65v-7.25Z"/><path class="cls-1" d="M264.44,122.56c.06-20.69,.16-41.38,.16-62.07,0-9.32-6.91-16.96-15.32-16.96-27.79-.02-109.25,.07-121.66,.02-.74,0-10.93-14.33-16.62-21.74-.04-.05-.1-.1-.15-.15-2.82-3.96-7.25-6.54-12.24-6.54H33.31c-10.07,0-18.31,8.81-18.31,19.59V120.44c0,.58,.03,1.15,.08,1.71-.03,48.29-.12,101.82-.07,111.37,.04,8.73,6.15,16.18,13.47,16.2,19.56,.06,39.13-.09,58.69-.15,.07,0,.14,0,.21,0,1.07,.07,2.14,.19,3.21,.19,53.06,0,106.13,0,159.19,0,1.11,0,7.51-1.34,8.74-2.85,3.74-4.58,6.18-9.63,6.07-16.43-.35-23.23-.21-107.91-.16-107.93Z"/><path class="cls-2" d="M249.17,46.8h-.48c-1.27-.19-109.98-.03-116.25-.11-4.51-.06-8.33,1.22-11.77,4.85-1.28,1.35-2.72,2.43-4.07,3.67-6.48,6.02-13.68,8.76-21.72,8.69-21.45-.18-65.24-.13-65.73,.03-7.89,.71-14.14,7.94-14.14,16.68,0,0,0,135.69,0,149.55,0,.49,.02,.98,.06,1.46h0c0,10.89,8.2,19.8,18.22,19.8H221.53s27.64,0,27.64,0c8.48,0,15.42-7.54,15.42-16.75V63.55c0-9.21-6.94-16.75-15.42-16.75Z"/><path class="cls-3" d="M261.17,256.69H93.7c-5.43,0-9.83-4.7-9.83-10.5l-.05-57.49c0-5.81,4.4-10.52,9.83-10.52h60.61c2.93,0,5.7-1.39,7.57-3.8l21.15-27.29c1.87-2.41,4.64-3.8,7.57-3.8h70.62c5.43,0,9.83,4.71,9.83,10.51v92.39c0,5.81-4.4,10.51-9.83,10.51Z"/></svg>