<svg xmlns="http://www.w3.org/2000/svg" width="20" height="15.5" viewBox="0 0 20 15.5"><path d="M6.22,8.22a.75.75,0,0,1,1.06,0l3,3a.75.75,0,0,1-1.06,1.06L7.5,10.56v8.19a.75.75,0,0,1-1.5,0V10.56L4.28,12.28a.75.75,0,0,1-1.06-1.06Z" transform="translate(-2 -4)" style="fill:#557fff"/><path d="M22,4.75A.76.76,0,0,0,21.25,4H2.75a.75.75,0,0,0,0,1.5h18.5A.76.76,0,0,0,22,4.75Z" transform="translate(-2 -4)" style="fill:#212121"/><path d="M21.25,8h-9a.75.75,0,0,0,0,1.5h9a.75.75,0,0,0,0-1.5Z" transform="translate(-2 -4)" style="fill:#212121"/></svg>