<svg xmlns="http://www.w3.org/2000/svg" width="192.2" height="160.9" viewBox="0 0 192.2 160.9"><path d="M48.6,13.6H188.7a3.5,3.5,0,0,1,3.5,3.5h0v5.4a3.5,3.5,0,0,1-3.5,3.5H48.6a3.5,3.5,0,0,1-3.5-3.5h0V17.2a3.5,3.5,0,0,1,3.4-3.6Z" style="fill:#727272"/><rect x="3" y="3" width="33.6" height="33.63" rx="8.1" style="fill:none;stroke:#727272;stroke-miterlimit:10;stroke-width:6px"/><rect x="3" y="63.6" width="33.6" height="33.63" rx="8.1" style="fill:none;stroke:#727272;stroke-miterlimit:10;stroke-width:6px"/><rect x="3" y="124.3" width="33.6" height="33.63" rx="8.1" style="fill:none;stroke:#727272;stroke-miterlimit:10;stroke-width:6px"/><path d="M48.6,74.2H188.7a3.5,3.5,0,0,1,3.5,3.5h0v5.4a3.5,3.5,0,0,1-3.5,3.5H48.6a3.5,3.5,0,0,1-3.5-3.5h0V77.8a3.4,3.4,0,0,1,3.4-3.6Z" style="fill:#727272"/><path d="M48.6,134.7H188.7a3.5,3.5,0,0,1,3.5,3.5h0v5.4a3.5,3.5,0,0,1-3.5,3.5H48.6a3.5,3.5,0,0,1-3.5-3.5h0v-5.4a3.5,3.5,0,0,1,3.4-3.6Z" style="fill:#727272"/></svg>