<svg xmlns="http://www.w3.org/2000/svg" width="99.74" height="85.22" viewBox="0 0 99.74 85.22"><path d="M31.31,8.42H98a1.8,1.8,0,0,1,1.79,1.78h0V13A1.79,1.79,0,0,1,98,14.76H31.31A1.79,1.79,0,0,1,29.52,13h0V10.26a1.79,1.79,0,0,1,1.72-1.84h.07Z" style="fill:#727272"/><rect x="3" y="3" width="17.18" height="17.2" rx="4.14" style="fill:none;stroke:#4678c8;stroke-miterlimit:10;stroke-width:6px"/><rect x="3" y="33.99" width="17.18" height="17.2" rx="4.14" style="fill:none;stroke:#4678c8;stroke-miterlimit:10;stroke-width:6px"/><rect x="3" y="65.02" width="17.18" height="17.2" rx="4.14" style="fill:none;stroke:#4678c8;stroke-miterlimit:10;stroke-width:6px"/><path d="M31.31,39.4H98a1.79,1.79,0,0,1,1.79,1.79h0V44A1.79,1.79,0,0,1,98,45.74H31.31A1.79,1.79,0,0,1,29.52,44h0V41.24a1.75,1.75,0,0,1,1.64-1.84Z" style="fill:#727272"/><path d="M31.31,70.31H98a1.79,1.79,0,0,1,1.79,1.79h0v2.76A1.79,1.79,0,0,1,98,76.65H31.31a1.79,1.79,0,0,1-1.79-1.79h0V72.15a1.75,1.75,0,0,1,1.64-1.84Z" style="fill:#727272"/></svg>