<svg xmlns="http://www.w3.org/2000/svg" width="99.74" height="85.22" viewBox="0 0 99.74 85.22"><path d="M31.57,15.75H98.21A1.79,1.79,0,0,1,100,17.53h0V20.3a1.79,1.79,0,0,1-1.79,1.79H31.57a1.79,1.79,0,0,1-1.79-1.79h0V17.59a1.78,1.78,0,0,1,1.74-1.84h.05Z" transform="translate(-0.26 -7.33)" style="fill:#727272"/><rect x="3" y="3" width="17.18" height="17.2" rx="4.14" style="fill:none;stroke:#727272;stroke-miterlimit:10;stroke-width:6px"/><rect x="3" y="33.99" width="17.18" height="17.2" rx="4.14" style="fill:none;stroke:#727272;stroke-miterlimit:10;stroke-width:6px"/><rect x="3" y="65.02" width="17.18" height="17.2" rx="4.14" style="fill:none;stroke:#727272;stroke-miterlimit:10;stroke-width:6px"/><path d="M31.57,46.73H98.21A1.79,1.79,0,0,1,100,48.52h0v2.76a1.79,1.79,0,0,1-1.79,1.79H31.57a1.79,1.79,0,0,1-1.79-1.79h0V48.57a1.75,1.75,0,0,1,1.64-1.84h.15Z" transform="translate(-0.26 -7.33)" style="fill:#727272"/><path d="M31.57,77.67H98.21A1.79,1.79,0,0,1,100,79.46h0v2.76A1.79,1.79,0,0,1,98.21,84H31.57a1.79,1.79,0,0,1-1.79-1.79h0V79.46a1.78,1.78,0,0,1,1.74-1.84h0Z" transform="translate(-0.26 -7.33)" style="fill:#727272"/></svg>