<svg xmlns="http://www.w3.org/2000/svg" width="175" height="175" viewBox="0 0 175 175"><path d="M41.05,75H52.7a3.55,3.55,0,0,1,3.55,3.55V84A3.55,3.55,0,0,1,52.7,87.5H41.05A3.55,3.55,0,0,1,37.5,84v-5.4A3.55,3.55,0,0,1,41.05,75Zm0,31.25H52.7a3.55,3.55,0,0,1,3.55,3.55v5.4a3.55,3.55,0,0,1-3.55,3.55H41.05a3.55,3.55,0,0,1-3.55-3.55v-5.4A3.55,3.55,0,0,1,41.05,106.25Zm0-62.5H52.7a3.55,3.55,0,0,1,3.55,3.55v5.4a3.55,3.55,0,0,1-3.55,3.55H41.05A3.55,3.55,0,0,1,37.5,52.7V47.3A3.55,3.55,0,0,1,41.05,43.75Z" transform="translate(-12.5 -12.5)" style="fill:#557fff"/><path d="M28.55,25H92.3a3.54,3.54,0,0,1,2.88,1.48L102,36a3.55,3.55,0,0,0,2.89,1.48h6.65a3.55,3.55,0,0,0,2.88-5.62L101.59,14a3.55,3.55,0,0,0-2.88-1.48H16.05a3.55,3.55,0,0,0-3.55,3.55v130.4A3.55,3.55,0,0,0,16.05,150H52.51a3.54,3.54,0,0,0,3.54-3.55v-5.4a3.54,3.54,0,0,0-3.54-3.55h-24A3.55,3.55,0,0,1,25,134V28.55A3.55,3.55,0,0,1,28.55,25ZM155.8,50H72.3a3.55,3.55,0,0,0-3.55,3.55V184a3.55,3.55,0,0,0,3.55,3.55H184A3.55,3.55,0,0,0,187.5,184V81.16a3.55,3.55,0,0,0-1.06-2.54L158.28,51A3.53,3.53,0,0,0,155.8,50Zm15.65,125H84.8a3.55,3.55,0,0,1-3.55-3.55V66.05A3.55,3.55,0,0,1,84.8,62.5h51.11a3.55,3.55,0,0,1,3.54,3.55V94.11A3.55,3.55,0,0,0,143,97.66h28.45A3.54,3.54,0,0,1,175,101.2v70.25A3.55,3.55,0,0,1,171.45,175ZM175,85.16H155.5A3.55,3.55,0,0,1,152,81.61V62.5h.18L175,84.92Z" transform="translate(-12.5 -12.5)" style="fill:#727272"/><path d="M97.3,80.64h30.4a3.55,3.55,0,0,1,3.55,3.55V89.6a3.54,3.54,0,0,1-3.55,3.54H97.3a3.54,3.54,0,0,1-3.55-3.54V84.19A3.55,3.55,0,0,1,97.3,80.64Zm.19,31.86h62.05a3.55,3.55,0,0,1,3.55,3.55v5.4a3.55,3.55,0,0,1-3.55,3.55h-62A3.54,3.54,0,0,1,94,121.45v-5.4A3.54,3.54,0,0,1,97.49,112.5Zm0,30.86h62.05a3.55,3.55,0,0,1,3.55,3.55v5.4a3.55,3.55,0,0,1-3.55,3.55h-62A3.54,3.54,0,0,1,94,152.31v-5.4A3.54,3.54,0,0,1,97.49,143.36Z" transform="translate(-12.5 -12.5)" style="fill:#557fff"/></svg>