<svg xmlns="http://www.w3.org/2000/svg" width="16" height="20" viewBox="0 0 16 20"><path d="M5.5,4.63V17.25A3.25,3.25,0,0,0,8.75,20.5h8.62A2.25,2.25,0,0,1,15.24,22H8.75A4.75,4.75,0,0,1,4,17.25V6.75A2.25,2.25,0,0,1,5.5,4.63ZM17.75,2A2.25,2.25,0,0,1,20,4.25v13a2.25,2.25,0,0,1-2.25,2.25h-9A2.25,2.25,0,0,1,6.5,17.25v-13A2.25,2.25,0,0,1,8.75,2Zm0,1.5h-9A.76.76,0,0,0,8,4.25v13a.76.76,0,0,0,.75.75h9a.76.76,0,0,0,.75-.75v-13A.76.76,0,0,0,17.75,3.5Z" transform="translate(-4 -2)" style="fill:#212121"/><path d="M9.66,6.41h3.51a.41.41,0,0,1,.41.41v.62a.41.41,0,0,1-.41.41H9.66a.4.4,0,0,1-.41-.4h0V6.82a.41.41,0,0,1,.41-.41Zm0,3.68h7.16a.41.41,0,0,1,.41.41h0v.62a.41.41,0,0,1-.41.41H9.69a.41.41,0,0,1-.41-.41h0V10.5A.4.4,0,0,1,9.68,10.09Zm0,3.56h7.16a.41.41,0,0,1,.41.41h0v.62a.41.41,0,0,1-.41.41H9.69a.41.41,0,0,1-.41-.41h0v-.62A.4.4,0,0,1,9.68,13.65Z" transform="translate(-4 -2)" style="fill:#557fff"/></svg>