<svg xmlns="http://www.w3.org/2000/svg" width="162.5" height="175" viewBox="0 0 162.5 175"><path d="M111.27,75.84l33.89-47.91A11.29,11.29,0,0,0,141,12.5L100,62.17,59,12.5a11.25,11.25,0,0,0-4.14,15.43L88.73,75.84,53.32,118.73l18.73,11.74,12-16.15L100,91.78l15.94,22.54,12,16.15,18.73-11.74Z" transform="translate(-18.75 -12.5)" style="fill:#7f8080"/><path d="M53.32,118.36a34.57,34.57,0,1,0,34.57,34.57A34.61,34.61,0,0,0,53.32,118.36Zm.2,56.64a22.07,22.07,0,1,1,22.07-22.07A22.09,22.09,0,0,1,53.52,175Zm93.16-56.64a34.57,34.57,0,1,0,34.57,34.57A34.61,34.61,0,0,0,146.68,118.36Zm0,56.64a22.07,22.07,0,1,1,22.07-22.07A22.09,22.09,0,0,1,146.68,175Z" transform="translate(-18.75 -12.5)" style="fill:#557fff"/></svg>