<svg xmlns="http://www.w3.org/2000/svg" width="179.31" height="178.54" viewBox="0 0 179.31 178.54"><path d="M142.27,186.43h-85c-7.64,0-13.87-6.57-14-14.69L29.8,39.69H169.73L156.25,171.74C156.11,179.86,149.9,186.43,142.27,186.43ZM39.86,48.79l12.5,122.48v.23c0,3.23,2.21,5.84,4.91,5.84h85c2.69,0,4.9-2.61,4.9-5.84l0-.46L159.67,48.79Z" transform="translate(-10.54 -9.88)" style="fill:#727272;stroke:#727272;stroke-miterlimit:10;stroke-width:4px"/><path d="M140,47.48H59.51a9.75,9.75,0,0,1-9.74-9.75L56,22.66c2.88-6.52,3.83-10.78,8.54-10.78H135c4.71,0,5.66,4.84,8.54,10.78l6.23,15.07A9.76,9.76,0,0,1,140,47.48ZM64.53,22a.67.67,0,0,0-.57.72L58.87,37.75a.65.65,0,0,0,.64.65H140a.65.65,0,0,0,.64-.65l-5.09-15.06A.67.67,0,0,0,135,22Z" transform="translate(-10.54 -9.88)" style="fill:#727272;stroke:#727272;stroke-miterlimit:10;stroke-width:4px"/><path d="M183.3,48.79H17.09a4.55,4.55,0,0,1,0-9.1H183.3a4.55,4.55,0,0,1,0,9.1Z" transform="translate(-10.54 -9.88)" style="fill:#727272;stroke:#727272;stroke-miterlimit:10;stroke-width:4px"/><path d="M82.23,163.05a4.55,4.55,0,0,1-4.55-4.55V67.62a4.55,4.55,0,1,1,9.1,0v90.9A4.54,4.54,0,0,1,82.23,163.05Z" transform="translate(-10.54 -9.88)" style="fill:#557fff;stroke:#557fff;stroke-miterlimit:10;stroke-width:4px"/><path d="M117.29,163.05a4.56,4.56,0,0,1-4.56-4.55V67.62a4.56,4.56,0,0,1,9.11,0v90.9A4.54,4.54,0,0,1,117.29,163.05Z" transform="translate(-10.54 -9.88)" style="fill:#557fff;stroke:#557fff;stroke-miterlimit:10;stroke-width:4px"/></svg>