<svg xmlns="http://www.w3.org/2000/svg" width="38" height="39.96" viewBox="0 0 38 39.96"><path d="M24,6.5a4,4,0,0,0-4,4V11h8v-.5A4,4,0,0,0,24,6.5Z" transform="translate(-5 -4)" style="fill:none"/><path d="M20.25,19A1.25,1.25,0,0,0,19,20.25v14.5a1.25,1.25,0,0,0,2.5,0V20.25A1.25,1.25,0,0,0,20.25,19Z" transform="translate(-5 -4)" style="fill:none"/><path d="M27.75,19a1.25,1.25,0,0,0-1.25,1.25v14.5a1.25,1.25,0,0,0,2.5,0V20.25A1.25,1.25,0,0,0,27.75,19Z" transform="translate(-5 -4)" style="fill:none"/><path d="M9.17,13.5l2,23.82A7.24,7.24,0,0,0,18.39,44H29.61a7.24,7.24,0,0,0,7.22-6.64l2-23.82ZM21.5,34.71a1.25,1.25,0,0,1-2.5,0V20.21a1.25,1.25,0,0,1,2.5,0Zm7.5,0a1.25,1.25,0,0,1-2.5,0V20.21a1.25,1.25,0,0,1,2.5,0Z" transform="translate(-5 -4)" style="fill:#212121"/><path d="M41.75,13.5a1.25,1.25,0,0,0,0-2.5H30.5v-.5a6.5,6.5,0,0,0-13,0V11H6.25a1.25,1.25,0,0,0,0,2.5ZM28,11H20v-.5a4,4,0,0,1,8,0Z" transform="translate(-5 -4)" style="fill:#557fff"/></svg>