<svg xmlns="http://www.w3.org/2000/svg" width="100" height="68.26" viewBox="0 0 100 68.26"><path d="M1.81,15.87H98.2a1.8,1.8,0,0,1,1.8,1.79h0v2.76a1.8,1.8,0,0,1-1.8,1.79H1.81A1.8,1.8,0,0,1,0,20.42H0V17.71a1.8,1.8,0,0,1,1.75-1.84h.06Z" transform="translate(0 -15.87)" style="fill:#727272"/><path d="M1.81,46.86H98.2a1.79,1.79,0,0,1,1.8,1.78h0v2.77a1.8,1.8,0,0,1-1.8,1.79H1.81A1.81,1.81,0,0,1,0,51.41H0V48.7a1.75,1.75,0,0,1,1.65-1.84h.16Z" transform="translate(0 -15.87)" style="fill:#727272"/><path d="M1.81,77.79H98.2a1.8,1.8,0,0,1,1.8,1.79h0v2.76a1.8,1.8,0,0,1-1.8,1.79H1.81A1.8,1.8,0,0,1,0,82.34H0V79.58a1.8,1.8,0,0,1,1.75-1.84h0Z" transform="translate(0 -15.87)" style="fill:#727272"/></svg>