<svg xmlns="http://www.w3.org/2000/svg" width="192.3" height="120.2" viewBox="0 0 192.3 120.2"><path d="M3.5,0H188.7a3.5,3.5,0,0,1,3.5,3.5h0V15a3.5,3.5,0,0,1-3.5,3.5H3.5A3.5,3.5,0,0,1,0,15H0V3.6A3.5,3.5,0,0,1,3.4,0Z" style="fill:#727272"/><path d="M3.6,50.8H188.7a3.6,3.6,0,0,1,3.6,3.5c0,.1,0,.1-.1.1h0V65.9a3.5,3.5,0,0,1-3.5,3.5H3.6A3.5,3.5,0,0,1,.1,65.9h0V54.4a3.5,3.5,0,0,1,3.3-3.6Z" style="fill:#727272"/><path d="M3.6,101.6H188.7a3.6,3.6,0,0,1,3.6,3.5c0,.1,0,.1-.1.1h0v11.5a3.5,3.5,0,0,1-3.5,3.5H3.6a3.5,3.5,0,0,1-3.5-3.5h0V105.2a3.5,3.5,0,0,1,3.3-3.6Z" style="fill:#727272"/></svg>