<svg xmlns="http://www.w3.org/2000/svg" width="100" height="68.26" viewBox="0 0 100 68.26"><path d="M1.81,0H98.2A1.8,1.8,0,0,1,100,1.79h0V4.55a1.8,1.8,0,0,1-1.8,1.79H1.81A1.81,1.81,0,0,1,0,4.55H0V1.84A1.8,1.8,0,0,1,1.75,0Z" transform="translate(0 0)" style="fill:#727272"/><path d="M1.81,31H98.2a1.79,1.79,0,0,1,1.8,1.78h0v2.77a1.8,1.8,0,0,1-1.8,1.79H1.81A1.81,1.81,0,0,1,0,35.54H0V32.83A1.75,1.75,0,0,1,1.65,31Z" transform="translate(0 0)" style="fill:#4678c8"/><path d="M1.81,61.92H98.2a1.8,1.8,0,0,1,1.8,1.79h0v2.76a1.8,1.8,0,0,1-1.8,1.79H1.81A1.81,1.81,0,0,1,0,66.47H0V63.71a1.8,1.8,0,0,1,1.75-1.84h0Z" transform="translate(0 0)" style="fill:#727272"/></svg>