<svg xmlns="http://www.w3.org/2000/svg" width="187.5" height="187.5" viewBox="0 0 187.5 187.5"><path d="M96.88,31.25H27.4a8.65,8.65,0,0,0-8.65,8.65V172.6a8.65,8.65,0,0,0,8.65,8.65H160.1a8.65,8.65,0,0,0,8.65-8.65V103.45a9.59,9.59,0,0,1,8.76-9.68,9.37,9.37,0,0,1,10,9.35V187.5A12.5,12.5,0,0,1,175,200H12.5A12.5,12.5,0,0,1,0,187.5V25A12.5,12.5,0,0,1,12.5,12.5H96.55a9.59,9.59,0,0,1,9.68,8.74,9.37,9.37,0,0,1-9.35,10Z" transform="translate(0 -12.5)"/><path d="M158.73,18.83,54.23,123.33a7.68,7.68,0,0,0-2,3.46L45.41,152.4,71,145.57a7.68,7.68,0,0,0,3.46-2L179,39.08a7.69,7.69,0,0,0,0-10.87l-9.38-9.38A7.69,7.69,0,0,0,158.73,18.83Z" transform="translate(0 -12.5)"/></svg>