<svg xmlns="http://www.w3.org/2000/svg" viewBox="0 0 166.67 133.33"><path d="M166.67,50H96.43a11.47,11.47,0,0,1-8.13-3.37L78.37,36.7a11.54,11.54,0,0,0-8.14-3.37H33.33A16.71,16.71,0,0,0,16.67,50V83.33H183.33V66.67A16.71,16.71,0,0,0,166.67,50Z" transform="translate(-16.67 -33.33)" style="fill:#ffa000"/><path d="M166.67,50H33.33A16.71,16.71,0,0,0,16.67,66.67V150a16.71,16.71,0,0,0,16.66,16.67H166.67A16.71,16.71,0,0,0,183.33,150V66.67A16.71,16.71,0,0,0,166.67,50Z" transform="translate(-16.67 -33.33)" style="fill:#ffca28"/></svg>