<svg xmlns="http://www.w3.org/2000/svg" width="168.53" height="143.11" viewBox="0 0 168.53 143.11"><path d="M132.43,39,174,77.78c3.73,3.48,3.79,9.54.15,13.57l-52.72,69.58a1.33,1.33,0,0,1-2,.17L53.17,99.32a1.34,1.34,0,0,1,0-2l65.68-57.5C122.66,35.93,128.7,35.55,132.43,39Zm-13.71,113a1.33,1.33,0,0,0,2-.17l48.83-64.45.1-.12c1.47-1.58,1.58-3.86.26-5.09L128.29,43.48c-1.32-1.23-3.59-1-5.06.62l-.21.22L62.28,97.48a1.32,1.32,0,0,0,0,2Z" transform="translate(-10.34 -20.35)" style="fill:#727272;stroke:#727272;stroke-miterlimit:10;stroke-width:4px"/><path d="M74.14,47.7,36.68,86.36a6.53,6.53,0,0,1-9.22.14l-4.34-10c-1.79-4.41-3.39-6.85-1.2-9.12L54.71,33.53c2.2-2.26,5-.46,9.16.92l10.13,4A6.53,6.53,0,0,1,74.14,47.7ZM26.78,72.09a.44.44,0,0,0,.08.61l4.85,9.44a.44.44,0,0,0,.61,0L69.78,43.47a.44.44,0,0,0,0-.61l-9.6-4.56a.46.46,0,0,0-.59-.06Z" transform="translate(-10.34 -20.35)" style="fill:#727272;stroke:#727272;stroke-miterlimit:10;stroke-width:4px"/><path d="M94.92,27.51,17.56,107.34a3,3,0,1,1-4.37-4.23L90.55,23.28a3,3,0,0,1,4.37,4.23Z" transform="translate(-10.34 -20.35)" style="fill:#727272;stroke:#727272;stroke-miterlimit:10;stroke-width:4px"/><path d="M151.15,77.84a3,3,0,0,1,.16,4.3h0l-41.44,44.47a3,3,0,1,1-4.45-4.14h0L146.86,78a3,3,0,0,1,4.29-.14Z" transform="translate(-10.34 -20.35)" style="fill:#557fff;stroke:#557fff;stroke-miterlimit:10;stroke-width:4px"/><path d="M134,61.86a3,3,0,0,1,.15,4.3L92.72,110.63a3,3,0,0,1-4.46-4.15L129.71,62a3,3,0,0,1,4.29-.14Z" transform="translate(-10.34 -20.35)" style="fill:#557fff;stroke:#557fff;stroke-miterlimit:10;stroke-width:4px"/></svg>