<svg xmlns="http://www.w3.org/2000/svg" width="121.25" height="119.92" viewBox="0 0 121.25 119.92"><path d="M112.74,129.52H55.89c-5.1,0-9.27-4.39-9.36-9.82L37.61,32.86a1.34,1.34,0,0,1,1.17-1.48H39l90.59,0a1.33,1.33,0,0,1,1.37,1.31.75.75,0,0,1,0,.15l-8.8,86.85C122,125.1,117.83,129.5,112.74,129.52Zm-67-92a1.34,1.34,0,0,0-1.36,1.3,1.15,1.15,0,0,0,0,.19l8.26,80.44v.15c0,2.16,1.48,3.9,3.28,3.9l56.83-.1a3.59,3.59,0,0,0,3.27-3.9v-.31l8.15-80.3A1.33,1.33,0,0,0,123,37.45h-.2Z" transform="translate(-23.64 -11.6)" style="fill:#727272;stroke:#727272;stroke-miterlimit:10;stroke-width:4px"/><path d="M111.17,37.41H57.34a6.54,6.54,0,0,1-6.52-6.53L55,20.81c1.92-4.36,2.56-7.2,5.71-7.21h47.13c3.15,0,3.81,3.27,5.71,7.22l4.18,10.05a6.53,6.53,0,0,1-6.53,6.54Zm-50.47-17a.41.41,0,0,0-.38.46L56.91,30.91a.44.44,0,0,0,.43.43h53.84a.43.43,0,0,0,.43-.43l-3.4-10.07a.45.45,0,0,0-.37-.46Z" transform="translate(-23.64 -11.6)" style="fill:#727272;stroke:#727272;stroke-miterlimit:10;stroke-width:4px"/><path d="M139.85,37.44H28.68a3,3,0,1,1,0-6.08H139.85a3,3,0,0,1,0,6.08Z" transform="translate(-23.64 -11.6)" style="fill:#727272;stroke:#727272;stroke-miterlimit:10;stroke-width:4px"/><path d="M72.11,113.87a3,3,0,0,1-3-3V50.05a3,3,0,0,1,6.09,0h0v60.8a3,3,0,0,1-3,3Z" transform="translate(-23.64 -11.6)" style="fill:#727272;stroke:#727272;stroke-miterlimit:10;stroke-width:4px"/><path d="M96.43,113.87a3,3,0,0,1-3-3V50.05a3,3,0,1,1,6.09,0h0v60.8a3,3,0,0,1-3,3Z" transform="translate(-23.64 -11.6)" style="fill:#727272;stroke:#727272;stroke-miterlimit:10;stroke-width:4px"/><path d="M132.6,27.51,40.24,119.9a3.36,3.36,0,0,1-4.68.38,3.35,3.35,0,0,1,.37-4.68l92.36-92.39a3.36,3.36,0,0,1,4.68-.38,3.35,3.35,0,0,1-.37,4.68Z" transform="translate(-23.64 -11.6)" style="fill:#e86060;stroke:#e86060;stroke-miterlimit:10;stroke-width:4px"/><path d="M40.22,23.22l92.39,92.36a3.08,3.08,0,1,1-4.3,4.31L35.92,27.53a3.36,3.36,0,0,1-.38-4.68,3.35,3.35,0,0,1,4.68.37Z" transform="translate(-23.64 -11.6)" style="fill:#e86060;stroke:#e86060;stroke-miterlimit:10;stroke-width:4px"/></svg>