<svg xmlns="http://www.w3.org/2000/svg" width="185.01" height="176.79" viewBox="0 0 185.01 176.79"><path d="M115,80a5,5,0,0,0,5-5V35a15,15,0,0,0-15-15H15A15,15,0,0,0,0,35V155c0,7.46,5.37,15.6,12.22,18.53l51.62,22.12a13.59,13.59,0,0,0,5.32,1.14,10.63,10.63,0,0,0,5.89-1.72c3.14-2.07,5-5.75,5-10.08V170h25a15,15,0,0,0,15-15V115a5,5,0,0,0-10,0v40a5,5,0,0,1-5,5H80V65c0-7.46-5.37-15.6-12.22-18.53L29.36,30H105a5,5,0,0,1,5,5V75a5,5,0,0,0,5,5ZM63.84,55.66A11.55,11.55,0,0,1,70,65V185a2.42,2.42,0,0,1-.45,1.73,2.45,2.45,0,0,1-1.77-.27L16.16,164.34A11.53,11.53,0,0,1,10,155V35a4.94,4.94,0,0,1,.51-2.2L63.84,55.66Z" transform="translate(0 -20)" style="fill:#d81e06"/><path d="M183.54,91.46l-30-30a5,5,0,0,0-7.07,7.07L167.93,90H105a5,5,0,0,0,0,10h62.93l-21.46,21.46a5,5,0,1,0,7.08,7.07l30-30a5,5,0,0,0,0-7.07Z" transform="translate(0 -20)" style="fill:#d81e06"/></svg>