<svg xmlns="http://www.w3.org/2000/svg" xmlns:xlink="http://www.w3.org/1999/xlink" width="128.87" height="103.95" viewBox="0 0 128.87 103.95"><defs><linearGradient id="a" x1="73.51" y1="26.44" x2="73.51" y2="20.6" gradientTransform="matrix(1, 0, 0, -1, 0, 136)" gradientUnits="userSpaceOnUse"><stop offset="0.74" stop-color="#ffc32d"/><stop offset="1" stop-color="#dfaa2b"/></linearGradient><linearGradient id="b" x1="-34.89" y1="535.44" x2="-33.76" y2="536.49" gradientTransform="matrix(1.21, 0.59, 1.03, -0.81, -426.13, 491.37)" gradientUnits="userSpaceOnUse"><stop offset="0" stop-color="#ccc"/><stop offset="1" stop-color="#e2e2e2"/></linearGradient><linearGradient id="c" x1="79.97" y1="85.3" x2="66.95" y2="22.78" gradientTransform="matrix(1, 0, 0, -1, 0, 136)" gradientUnits="userSpaceOnUse"><stop offset="0" stop-color="#ffd985"/><stop offset="1" stop-color="#ffc32c"/></linearGradient><linearGradient id="d" x1="19.6" y1="16.66" x2="20.79" y2="17.76" gradientTransform="matrix(1.32, -0.3, 0.3, -1.28, 67.02, 53.75)" gradientUnits="userSpaceOnUse"><stop offset="0" stop-color="#b5b5b5"/><stop offset="1" stop-color="#ccc"/></linearGradient></defs><path d="M110.6,36.4" transform="translate(-9 -11.45)" style="fill:#ffca28"/><path d="M9,61.7v42.4a11.35,11.35,0,0,0,11.3,11.3h90.3c2.5,0,11.3-9,11.3-11.3V47.7a11.35,11.35,0,0,0-11.3-11.3H63a7.64,7.64,0,0,1-5.5-2.3l-6.7-6.7a7.64,7.64,0,0,0-5.5-2.3h-25A11.29,11.29,0,0,0,9,36.4V59" transform="translate(-9 -11.45)" style="fill:#ffa000"/><path d="M20.3,36.4" transform="translate(-9 -11.45)" style="fill:#ffca28"/><path d="M129.1,49H38.8c-6.2,0-12.6,4.7-14.3,10.5L9.4,104.9c-1.2,4,2,10.5,8.3,10.5H110c4.7,0,10-3.2,11.5-8l16-47.9C139.1,53.7,135.4,49,129.1,49Z" transform="translate(-9 -11.45)" style="fill:url(#a)"/><line x1="71.6" y1="38.65" x2="116.9" y2="38.65" style="fill:none;stroke:#909090;stroke-linecap:round;stroke-miterlimit:10;stroke-width:2px"/><path d="M112.1,109a5,5,0,0,1-6.1,3.6L50.4,97.9a5,5,0,0,1-3.6-6.1L65,22.6A5,5,0,0,1,71.1,19l55.6,14.7a5,5,0,0,1,3.6,6.1Z" transform="translate(-9 -11.45)" style="fill:#ccc"/><path d="M124,56.3a5,5,0,0,1-.3,7.1L81.6,102.6a5,5,0,0,1-7.1-.3L34.3,59.1a5,5,0,0,1,.3-7.1L76.7,12.8a5,5,0,0,1,7.1.3Z" transform="translate(-9 -11.45)" style="fill:#e2e2e2"/><path d="M83.1,25.7,84.8,49h2.4L85.7,29.1s-.5-1-1-1.8A21.17,21.17,0,0,0,83.1,25.7Z" transform="translate(-9 -11.45)" style="fill:url(#b)"/><path d="M83.1,26.1l5.1,70.4a5,5,0,0,1-4.6,5.3l-57.3,3.8a5.11,5.11,0,0,1-5.4-4.7L15,20.5a5.1,5.1,0,0,1,4.6-5.4L67,11.8" transform="translate(-9 -11.45)" style="fill:#f0f0f0"/><line x1="18.5" y1="22.65" x2="53.3" y2="20.15" style="fill:none;stroke:#909090;stroke-linecap:round;stroke-miterlimit:10;stroke-width:2px"/><line x1="19.4" y1="34.25" x2="64.5" y2="30.95" style="fill:none;stroke:#909090;stroke-linecap:round;stroke-miterlimit:10;stroke-width:2px"/><path d="M129.1,49H38.8c-6.2,0-12.6,4.7-14.3,10.5L9.4,104.9c-1.2,4,3.6,8.9,9.9,8.9h92.3c4.7,0,8.3-1.6,9.8-6.4l16-47.9C139.1,53.7,135.4,49,129.1,49Z" transform="translate(-9 -11.45)" style="fill:url(#c)"/><path d="M83.1,26.5s-11.1.8-12.1.9c-1.6.1-3-1.8-3.1-3.3C67.8,23.2,67,12,67,12L83,25.6Z" transform="translate(-9 -11.45)" style="fill:#ccc"/><path d="M83.1,25.7s-11.1.8-12.1.9A3,3,0,0,1,67.9,24c-.1-1-.9-12.2-.9-12.2Z" transform="translate(-9 -11.45)" style="fill:#6ac0e2"/><polygon points="86.1 13.95 108.1 37.55 111.5 37.55 90.3 15.05 86.1 13.95" style="fill:url(#d)"/></svg>