<svg xmlns="http://www.w3.org/2000/svg" xmlns:xlink="http://www.w3.org/1999/xlink" width="547" height="429.33" viewBox="0 0 547 429.33"><defs><linearGradient id="a" x1="136.78" y1="70.7" x2="454.28" y2="20.04" gradientTransform="matrix(1, 0, 0, -1, 0, 431.33)" gradientUnits="userSpaceOnUse"><stop offset="0.02" stop-color="#e4ab1a"/><stop offset="1" stop-color="#e3a91b"/></linearGradient><linearGradient id="b" x1="17.34" y1="334.71" x2="482.51" y2="334.39" gradientTransform="matrix(1, 0, 0, -1, 0, 431.33)" gradientUnits="userSpaceOnUse"><stop offset="0" stop-color="#ffd050"/><stop offset="0.49" stop-color="#e4ab1a"/></linearGradient><linearGradient id="c" x1="275.51" y1="320.84" x2="275.5" y2="282.15" gradientTransform="matrix(1, 0, 0, -1, 0, 431.33)" gradientUnits="userSpaceOnUse"><stop offset="0.02" stop-color="#fff"/><stop offset="1" stop-color="#fff"/></linearGradient><linearGradient id="d" x1="240.39" y1="284.83" x2="309.7" y2="17.24" gradientTransform="matrix(1, 0, 0, -1, 0, 431.33)" gradientUnits="userSpaceOnUse"><stop offset="0" stop-color="#ffe393"/><stop offset="1" stop-color="#ffca3b"/></linearGradient></defs><path d="M0,339v66.83a23.5,23.5,0,0,0,23.5,23.5h500a23.5,23.5,0,0,0,23.5-23.5h0V339Z" transform="translate(0 0)" style="fill:url(#a)"/><path d="M0,193.33V23.6A23.61,23.61,0,0,1,23.6,0H183.15a23.58,23.58,0,0,1,17.91,8.24l35.88,41.85a23.58,23.58,0,0,0,17.91,8.24H523.4A23.62,23.62,0,0,1,547,81.93v81.75Z" transform="translate(0 0)" style="fill:url(#b)"/><path d="M25,223.23V104.43a16,16,0,0,1,15.94-16.1H510.06A16,16,0,0,1,526,104.43h0v118.8Z" transform="translate(0 0)" style="fill:url(#c)"/><path d="M23.5,418.33h500a23.5,23.5,0,0,0,23.5-23.5v-241a23.5,23.5,0,0,0-23.5-23.5H255.86A23.5,23.5,0,0,0,243.22,134l-35.44,22.62a23.5,23.5,0,0,1-12.64,3.69H23.5A23.5,23.5,0,0,0,0,183.83v211A23.5,23.5,0,0,0,23.5,418.33Z" transform="translate(0 0)" style="fill:url(#d)"/></svg>