<svg xmlns="http://www.w3.org/2000/svg" width="171.4" height="156.11" viewBox="0 0 171.4 156.11"><path d="M109.21,114.74A52.1,52.1,0,1,0,46.65,75.81h0L30.76,59.51" transform="translate(-8.26 -8.38)" style="fill:none;stroke:#f42900;stroke-linecap:round;stroke-linejoin:round;stroke-width:7px"/><line x1="38.39" y1="67.43" x2="51.02" y2="47.74" style="fill:none;stroke:#f42900;stroke-linecap:round;stroke-miterlimit:10;stroke-width:7px"/><path d="M161.1,96.58a15.07,15.07,0,0,1,15.06,15.07v34.28A15.06,15.06,0,0,1,161.1,161H26.83a15.07,15.07,0,0,1-15.07-15.06V111.65A15.07,15.07,0,0,1,26.83,96.58h78.7" transform="translate(-8.26 -8.38)" style="fill:none;stroke:#557fff;stroke-linecap:round;stroke-miterlimit:10;stroke-width:7px"/><rect x="28.43" y="114.17" width="29.61" height="16.1" rx="8.05" style="fill:none;stroke:#557fff;stroke-linecap:round;stroke-miterlimit:10;stroke-width:7px"/><line x1="94.14" y1="130.27" x2="147.64" y2="130.27" style="fill:none;stroke:#557fff;stroke-linecap:round;stroke-miterlimit:10;stroke-width:7px"/></svg>