<svg xmlns="http://www.w3.org/2000/svg" width="20" height="18" viewBox="0 0 20 18"><path d="M2.75,12h2.5a.75.75,0,0,1,.1,1.49H3.5V19H5.25a.75.75,0,0,1,.74.65v.1a.75.75,0,0,1-.65.74H2.75A.75.75,0,0,1,2,19.85v-7.1A.76.76,0,0,1,2.65,12Z" transform="translate(-2 -2.5)" style="fill:#3f70ff"/><path d="M21.24,17.5A.75.75,0,0,1,21.35,19H7.75a.75.75,0,0,1-.1-1.49H21.24Z" transform="translate(-2 -2.5)" style="fill:#212121"/><path d="M21.24,13.5A.75.75,0,0,1,21.35,15H7.75a.75.75,0,0,1-.1-1.49H21.24Z" transform="translate(-2 -2.5)" style="fill:#212121"/><path d="M2.75,2.5h2.5A.75.75,0,0,1,5.35,4H3.5V9.49H5.25a.75.75,0,0,1,.74.64v.11a.75.75,0,0,1-.65.74H2.75A.75.75,0,0,1,2,10.35V3.25a.74.74,0,0,1,.65-.74Z" transform="translate(-2 -2.5)" style="fill:#3f70ff"/><path d="M21.24,8a.75.75,0,0,1,.11,1.5H7.75A.75.75,0,0,1,7.65,8H21.24Z" transform="translate(-2 -2.5)" style="fill:#212121"/><path d="M21.25,4a.75.75,0,0,1,.1,1.5H7.75A.75.75,0,0,1,7.65,4h13.6Z" transform="translate(-2 -2.5)" style="fill:#212121"/></svg>