<svg xmlns="http://www.w3.org/2000/svg" width="36" height="36" viewBox="0 0 36 36"><path d="M8.5,24a15.5,15.5,0,1,0,4.1-10.5h4.15a1.25,1.25,0,0,1,0,2.5h-6.5A1.25,1.25,0,0,1,9,14.75V8.25a1.25,1.25,0,0,1,2.5,0v2.8A18,18,0,1,1,6,24c0-.63,0-1.24.09-1.85A1.3,1.3,0,0,1,7.41,21a1.22,1.22,0,0,1,1.17,1.37C8.53,22.9,8.5,23.45,8.5,24Z" transform="translate(-6 -6)" style="fill:#212121"/><path d="M25,15.25a1.25,1.25,0,0,0-2.5,0v10.5A1.25,1.25,0,0,0,23.75,27h5a1.25,1.25,0,0,0,0-2.5H25Z" transform="translate(-6 -6)" style="fill:#4aa0ff"/></svg>