<svg xmlns="http://www.w3.org/2000/svg" width="196.23" height="176.32" viewBox="0 0 196.23 176.32"><path d="M105.45,45.48A5.45,5.45,0,0,0,100,50.93v60.81a5.38,5.38,0,0,0,.93,3,5.45,5.45,0,0,0,4.52,2.41h46.09a5.45,5.45,0,1,0,0-10.9H110.9V50.93A5.45,5.45,0,0,0,105.45,45.48Z" transform="translate(-1.88 -14.97)"/><path d="M110,15A88.26,88.26,0,0,0,22.45,92.82L11.36,81.74a5.61,5.61,0,0,0-7.48-.53,5.47,5.47,0,0,0-.4,8.08l21.7,20.23a3.72,3.72,0,0,0,5,0L52.47,89.29a5.46,5.46,0,0,0-.39-8.08,5.62,5.62,0,0,0-7.49.53L33.43,92.9A77.23,77.23,0,1,1,110,180.39a5.45,5.45,0,0,0-5.43,6,5.64,5.64,0,0,0,5.75,4.94A88.16,88.16,0,0,0,110,15Z" transform="translate(-1.88 -14.97)"/></svg>