<svg xmlns="http://www.w3.org/2000/svg" width="175.23" height="157.48" viewBox="0 0 175.23 157.48"><path d="M164.54,44.37C154,33,134,21.25,108.68,21.25A81.37,81.37,0,0,0,52.82,43.93c-9.49,9.52-19,25.2-22.14,44.54l-3.16-3.42c-3.16-3.42-8.43-3.42-12.65,0a9.26,9.26,0,0,0,0,12.37l17.92,17.5a8.7,8.7,0,0,0,11.6.65l22.13-17.5c3.16-3,4.21-8.52,1-12.3a9.15,9.15,0,0,0-12.65-1.36L48.6,89.83A59.63,59.63,0,0,1,65.46,56.31c8.44-8.69,24.25-17.56,43.22-17.56S143.46,48,153,56.75c8.43,8.68,16.86,24.06,16.86,43.23s-9.49,34.94-17.92,43.7-24.24,17.55-43.21,17.55a8.76,8.76,0,0,0,0,17.5A81.29,81.29,0,0,0,164.54,156a79.83,79.83,0,0,0,23.19-56,79,79,0,0,0-23.2-55.6Z" transform="translate(-12.5 -21.25)" style="fill:#474b5f"/><path d="M115.38,65.71A8.9,8.9,0,0,0,107,57c-5.27,0-8.44,3.92-8.44,8.75V104a12.74,12.74,0,0,0,2.11,6.57l26.35,23c4.22,3.18,9.49,2.81,12.65-.82s3.16-9.16-1.05-12.34L115.37,100V65.71Z" transform="translate(-12.5 -21.25)" style="fill:#e64c62"/></svg>