<svg xmlns="http://www.w3.org/2000/svg" width="199.82" height="173.35" viewBox="0 0 199.82 173.35"><rect x="53.61" y="75.59" width="146.2" height="22.17" rx="11.08" style="fill:#727272"/><rect x="53.61" y="144.96" width="146.2" height="22.17" rx="11.08" style="fill:#557fff"/><path d="M.09,30.6A17.18,17.18,0,0,1,17.16,13.32a17.28,17.28,0,0,1,0,34.56A17.18,17.18,0,0,1,.09,30.6Z" transform="translate(-0.09 -13.32)" style="fill:#727272"/><path d="M.09,100A17.18,17.18,0,0,1,17.16,82.72a17.28,17.28,0,0,1,0,34.56A17.18,17.18,0,0,1,.09,100Z" transform="translate(-0.09 -13.32)" style="fill:#727272"/><path d="M.09,169.4a17.18,17.18,0,0,1,17.07-17.28,17.28,17.28,0,0,1,0,34.56A17.18,17.18,0,0,1,.09,169.4Z" transform="translate(-0.09 -13.32)" style="fill:#557fff"/><rect x="53.61" y="6.22" width="146.2" height="22.17" rx="11.08" style="fill:#727272"/></svg>