<svg xmlns="http://www.w3.org/2000/svg" width="133.82" height="183.82" viewBox="0 0 133.82 183.82"><path d="M164.68,46.89,130.59,10.53a4.54,4.54,0,0,0-3.32-1.44H38.64a4.55,4.55,0,0,0-4.55,4.55V186.36a4.55,4.55,0,0,0,4.55,4.55H161.36a4.55,4.55,0,0,0,4.55-4.55V50a4.55,4.55,0,0,0-1.23-3.11Z" transform="translate(-33.09 -8.09)" style="fill:none;stroke:#000;stroke-linecap:round;stroke-linejoin:round;stroke-width:2px;stroke-dasharray:19.960491180419922,9.980245590209961"/><polyline points="115.2 34.61 122.04 41.91 112.04 41.91" style="fill:none;stroke:#000;stroke-linecap:round;stroke-linejoin:round;stroke-width:2px"/><polyline points="104.18 41.91 94.18 41.91 94.18 31.91" style="fill:none;stroke:#000;stroke-linecap:round;stroke-linejoin:round;stroke-width:2px"/><polyline points="94.18 22.19 94.18 12.19 101.02 19.49" style="fill:none;stroke:#000;stroke-linecap:round;stroke-linejoin:round;stroke-width:2px"/><line x1="104.57" y1="23.27" x2="113.43" y2="32.72" style="fill:none;stroke:#000;stroke-linecap:round;stroke-linejoin:round;stroke-width:2px;stroke-dasharray:10.368027687072754,5.184013843536377"/><polyline points="123.73 163.73 123.73 173.73 113.73 173.73" style="fill:none;stroke:#000;stroke-linecap:round;stroke-linejoin:round;stroke-width:2px"/><line x1="104.36" y1="173.73" x2="24.77" y2="173.73" style="fill:none;stroke:#000;stroke-linecap:round;stroke-linejoin:round;stroke-width:2px;stroke-dasharray:18.72727394104004,9.36363697052002"/><polyline points="20.09 173.73 10.09 173.73 10.09 163.73" style="fill:none;stroke:#000;stroke-linecap:round;stroke-linejoin:round;stroke-width:2px"/><line x1="10.09" y1="152.68" x2="10.09" y2="25.62" style="fill:none;stroke:#000;stroke-linecap:round;stroke-linejoin:round;stroke-width:2px;stroke-dasharray:22.097902297973633,11.048951148986816"/><polyline points="10.09 20.09 10.09 10.09 20.09 10.09" style="fill:none;stroke:#000;stroke-linecap:round;stroke-linejoin:round;stroke-width:2px"/><line x1="27.95" y1="10.09" x2="71.16" y2="10.09" style="fill:none;stroke:#000;stroke-linecap:round;stroke-linejoin:round;stroke-width:2px;stroke-dasharray:15.714287757873535,7.857143878936768"/><polyline points="75.09 10.09 85.09 10.09 85.09 20.09" style="fill:none;stroke:#000;stroke-linecap:round;stroke-linejoin:round;stroke-width:2px"/><path d="M118.18,36.41V54.55a4.55,4.55,0,0,0,4.55,4.54h20" transform="translate(-33.09 -8.09)" style="fill:none;stroke:#000;stroke-linecap:round;stroke-linejoin:round;stroke-width:2px;stroke-dasharray:16.452425003051758,8.226212501525879"/><polyline points="113.73 51 123.73 51 123.73 61" style="fill:none;stroke:#000;stroke-linecap:round;stroke-linejoin:round;stroke-width:2px"/><line x1="123.73" y1="71.27" x2="123.73" y2="158.59" style="fill:none;stroke:#000;stroke-linecap:round;stroke-linejoin:round;stroke-width:2px;stroke-dasharray:20.545455932617188,10.272727966308594"/><path d="M67,144.13,123.4,86.3a3.43,3.43,0,0,1,4.82-.08L131,88.88a3.42,3.42,0,0,1,.09,4.88L74.65,151.5a3.44,3.44,0,0,1-4.8.11L67.1,149A3.43,3.43,0,0,1,67,144.13Zm.06-55.25,2.79-2.66a3.44,3.44,0,0,1,4.83.08l56.41,57.83A3.45,3.45,0,0,1,131,149l-2.75,2.57a3.44,3.44,0,0,1-4.8-.11L67,93.76A3.43,3.43,0,0,1,67.05,88.88Z" transform="translate(-33.09 -8.09)" style="fill:#ff0a11"/></svg>