<svg xmlns="http://www.w3.org/2000/svg" width="197.99" height="197.99" viewBox="0 0 197.99 197.99"><path d="M100,199c-54.45,0-99-44.54-99-99S45.55,1,100,1s99,44.54,99,99-44.54,99-99,99Zm0-183.14A84.15,84.15,0,1,0,184.15,100,84.08,84.08,0,0,0,100,15.85Z" transform="translate(-1.01 -1.01)" style="fill:#727272"/><path d="M42.58,100a11.88,11.88,0,0,0,23.76,0h0a11.88,11.88,0,0,0-23.76,0Z" transform="translate(-1.01 -1.01)" style="fill:#727272"/><path d="M88.12,100A11.88,11.88,0,1,0,100,88.12,11.88,11.88,0,0,0,88.12,100Z" transform="translate(-1.01 -1.01)" style="fill:#727272"/><path d="M133.66,100a11.88,11.88,0,1,0,11.88-11.88A11.88,11.88,0,0,0,133.66,100Z" transform="translate(-1.01 -1.01)" style="fill:#557fff"/></svg>