<svg xmlns="http://www.w3.org/2000/svg" width="187.5" height="187.5" viewBox="0 0 187.5 187.5"><path d="M193.75,100A93.75,93.75,0,1,1,100,6.25,93.75,93.75,0,0,1,193.75,100Zm-45.83,1.83a6.06,6.06,0,0,0-6,5.39,44.09,44.09,0,0,1-43.71,38.65c-14.4,0-28.33-7.44-35.48-19-8.15-13.12-6-30.72,4.9-40.93a25.74,25.74,0,0,1,11.22-6.06l-1,3.7c-1,3.43-2,6.95-2.82,10.14-2.2,8.75-.77,17,4.07,23.35a24,24,0,0,0,32.6,4.87,26.93,26.93,0,0,0,11.24-19.64,30.21,30.21,0,0,0-1-10.75,34.21,34.21,0,0,0-20.49-22.08A45.62,45.62,0,0,0,95,67.59l8-24.37c2.9-10.71-2-20.15-12.08-23.5h0a18.72,18.72,0,0,0-8-.82,19.71,19.71,0,0,0-10.43,4.56,12.9,12.9,0,0,0-2.81,3.22l-.13.2a6.2,6.2,0,0,0,9.74,7.36,26.35,26.35,0,0,1,2-1.93,6.77,6.77,0,0,1,2.39-1.18,6.21,6.21,0,0,1,7.5,4.18A8.65,8.65,0,0,1,91.07,40c-.54,2-8.21,25.09-8.66,26.84a38.86,38.86,0,0,0-23.2,10.12c-15.42,14.4-18.37,38.17-7,56.51,9.36,15.08,27.41,24.82,46,24.82a56.52,56.52,0,0,0,56-49.72,6,6,0,0,0-6-6.71ZM91.82,79.59A29.43,29.43,0,0,1,97,81.07a21.62,21.62,0,0,1,13,13.87,17.34,17.34,0,0,1,.57,6.33,14.4,14.4,0,0,1-6,10.54,11.4,11.4,0,0,1-9.79,1.66,11.13,11.13,0,0,1-5.91-3.89c-3.18-4.15-2.78-9.24-1.89-12.79.77-3,1.74-6.37,2.7-9.75.73-2.5,1.45-5,2.1-7.45Z" transform="translate(-6.25 -6.25)" style="fill:#dd001b"/></svg>