<svg xmlns="http://www.w3.org/2000/svg" width="166.41" height="133.6" viewBox="0 0 166.41 133.6"><path d="M173.15,128.22V117.71a3.15,3.15,0,0,0-3.15-3.15H151.29a3.13,3.13,0,0,1-3.14-3.14V92.71A3.15,3.15,0,0,0,145,89.56H134.88a3.15,3.15,0,0,0-3.14,3.15v18.71a3.14,3.14,0,0,1-3.14,3.14H109.88a3.15,3.15,0,0,0-3.14,3.15v10.51a3.14,3.14,0,0,0,3.14,3.14H128.6a3.15,3.15,0,0,1,3.14,3.15v18.71a3.14,3.14,0,0,0,3.14,3.14H145a3.14,3.14,0,0,0,3.15-3.14V134.51a3.14,3.14,0,0,1,3.14-3.15H170A3.14,3.14,0,0,0,173.15,128.22ZM166.8,50a15.6,15.6,0,0,1,11.72,4.88,16.64,16.64,0,0,1,4.69,11.92V150a16.6,16.6,0,0,1-4.69,11.92,15.61,15.61,0,0,1-11.72,4.88H33.21a15.58,15.58,0,0,1-11.72-4.88A16.64,16.64,0,0,1,16.8,150V50a16.56,16.56,0,0,1,4.69-11.92A15.61,15.61,0,0,1,33.21,33.2H81a5.28,5.28,0,0,1,3.73,1.55l13.71,13.7A5.28,5.28,0,0,0,102.19,50H166.8Z" transform="translate(-16.8 -33.2)"/></svg>