<svg xmlns="http://www.w3.org/2000/svg" width="17.75" height="20" viewBox="0 0 17.75 20"><path d="M19.75,18h-9a.75.75,0,0,0,0,1.5h9a.75.75,0,0,0,0-1.5Z" transform="translate(-2.75 -2)" style="fill:#212121"/><path d="M19.75,11.49h-9a.75.75,0,0,0,0,1.5h9a.75.75,0,0,0,0-1.5Z" transform="translate(-2.75 -2)" style="fill:#212121"/><path d="M10.75,6.5h9a.75.75,0,0,0,0-1.5h-9a.75.75,0,0,0,0,1.5Z" transform="translate(-2.75 -2)" style="fill:#212121"/><path d="M4.15,5.14l.35-.25V7.25a.75.75,0,0,0,1.5,0V2.75A.75.75,0,0,0,5.41,2a.74.74,0,0,0-.84.42h0v0l0,.11A3.54,3.54,0,0,1,4.26,3a3.12,3.12,0,0,1-.91.9.75.75,0,0,0,.8,1.28Z" transform="translate(-2.75 -2)" style="fill:#557fff"/><path d="M4.64,11.87l-.06,0A2.79,2.79,0,0,0,3,14.25a.76.76,0,0,0,.75.75h2.5a.75.75,0,0,0,0-1.5H4.93a5.25,5.25,0,0,1,.48-.34l.08-.05a5.41,5.41,0,0,0,.9-.69A2,2,0,0,0,7,11a2,2,0,0,0-.47-1.35A1.93,1.93,0,0,0,5.41,9a2.57,2.57,0,0,0-2.19.68.75.75,0,0,0,1.06,1.06,1.1,1.1,0,0,1,.87-.26.39.39,0,0,1,.25.12.5.5,0,0,1,.1.36.48.48,0,0,1-.18.37A3.74,3.74,0,0,1,4.64,11.87Z" transform="translate(-2.75 -2)" style="fill:#557fff"/><path d="M7.2,17.9a1.75,1.75,0,0,0-.6-1.36A2.35,2.35,0,0,0,5,16a3.25,3.25,0,0,0-1.46.33,2.62,2.62,0,0,0-.4.24L3,16.66l0,0H3a.75.75,0,0,0,1,1.07l0,0,.17-.1A1.75,1.75,0,0,1,5,17.5a.94.94,0,0,1,.61.16.26.26,0,0,1,.09.19.37.37,0,0,1-.13.23.83.83,0,0,1-.57.17.75.75,0,0,0,0,1.5.83.83,0,0,1,.57.17.37.37,0,0,1,.13.23.24.24,0,0,1-.09.19A.94.94,0,0,1,5,20.5a1.75,1.75,0,0,1-.79-.17L4,20.23l0,0a.75.75,0,0,0-1,1.07H3l0,0,.11.09a2.62,2.62,0,0,0,.4.24A3.25,3.25,0,0,0,5,22a2.35,2.35,0,0,0,1.6-.54,1.75,1.75,0,0,0,.6-1.36A1.81,1.81,0,0,0,6.77,19,1.81,1.81,0,0,0,7.2,17.9Z" transform="translate(-2.75 -2)" style="fill:#557fff"/><path d="M3,16.72Z" transform="translate(-2.75 -2)" style="fill:#212121"/></svg>