<svg xmlns="http://www.w3.org/2000/svg" width="168.82" height="108.17" viewBox="0 0 168.82 108.17"><path d="M115.31,104.69s36.25-20.31,36.88-20A52.83,52.83,0,0,0,88.13,46.56,52,52,0,0,0,57.19,68.75C57.5,68.75,115.31,104.69,115.31,104.69Z" transform="translate(-15.62 -44.95)" style="fill:#0364b8"/><path d="M80,74.69a42.49,42.49,0,0,0-22.19-6.25h-.62a42.22,42.22,0,0,0-41.57,42.81A43.67,43.67,0,0,0,23.12,135l58.13-5.94,34.06-32.81Z" transform="translate(-15.62 -44.95)" style="fill:#0f78d4"/><path d="M152.19,84.69H150a32.25,32.25,0,0,0-13.44,2.81l-21.25,8.75,23.13,25.63L180.31,135a34.28,34.28,0,0,0-13.85-46.45l-.21-.11a37.66,37.66,0,0,0-14.06-3.75Z" transform="translate(-15.62 -44.95)" style="fill:#1490df"/><path d="M150.31,117.19l-8.75-5.32-20-11.87-6.25-3.75-15.94,6.87L68.44,116.25l-14.07,5.63L23.12,135a42.51,42.51,0,0,0,34.69,18.12H150A34.73,34.73,0,0,0,180.31,135Z" transform="translate(-15.62 -44.95)" style="fill:#28a8ea"/></svg>