<svg xmlns="http://www.w3.org/2000/svg" width="99.4" height="85.59" viewBox="0 0 99.4 85.59"><path d="M31.2,15.75H97.84a1.77,1.77,0,0,1,1.77,1.77v.05h0v2.72a1.77,1.77,0,0,1-1.77,1.77H31.2a1.76,1.76,0,0,1-1.76-1.77h0V17.57a1.76,1.76,0,0,1,1.71-1.81Z" transform="translate(-0.21 -7.41)" style="fill:#727272"/><circle cx="73.98" cy="61.03" r="24.56" style="fill:#4a9bff"/><path d="M46.31,76.92H31.2a1.76,1.76,0,0,0-1.76,1.76V81.4h0a1.81,1.81,0,0,0,1.76,1.82H49.39A29.19,29.19,0,0,1,46.31,76.92Z" transform="translate(-0.21 -7.41)" style="fill:#727272"/><path d="M98.85,52.31a1.77,1.77,0,0,0,.76-1.46V48.13a1.77,1.77,0,0,0-1.72-1.82H93.66A31.27,31.27,0,0,1,98.85,52.31Z" transform="translate(-0.21 -7.41)" style="fill:#727272"/><path d="M54.68,46.31H31.2a1.81,1.81,0,0,0-1.76,1.82v2.72h0a1.76,1.76,0,0,0,1.76,1.76H49.29A32.09,32.09,0,0,1,54.68,46.31Z" transform="translate(-0.21 -7.41)" style="fill:#727272"/><path d="M62.45,82.76a2.62,2.62,0,0,1-2.58-2.62,2.43,2.43,0,0,1,.76-1.81l19-19H65A2.52,2.52,0,0,1,62.35,57h0v-.2a2.51,2.51,0,0,1,2.42-2.57H82.36a6.19,6.19,0,0,1,6.1,6V77.67a2.62,2.62,0,0,1-5.24,0V63.05L64.31,82A2.58,2.58,0,0,1,62.45,82.76Z" transform="translate(-0.21 -7.41)" style="fill:#fff"/><rect x="3" y="3" width="16.94" height="16.96" rx="4.08" style="fill:none;stroke:#727272;stroke-miterlimit:10;stroke-width:6px"/><rect x="3" y="33.56" width="16.94" height="16.96" rx="4.08" style="fill:none;stroke:#727272;stroke-miterlimit:10;stroke-width:6px"/><rect x="3" y="64.16" width="16.94" height="16.96" rx="4.08" style="fill:none;stroke:#727272;stroke-miterlimit:10;stroke-width:6px"/></svg>