<svg xmlns="http://www.w3.org/2000/svg" width="192.3" height="166.8" viewBox="0 0 192.3 166.8"><path d="M53.6,18.1H193.7a3.5,3.5,0,0,1,3.5,3.6h0v5.4a3.5,3.5,0,0,1-3.5,3.5H53.6a3.5,3.5,0,0,1-3.5-3.5h0V21.7A3.5,3.5,0,0,1,53.6,18.1Z" transform="translate(-5 -4.5)" style="fill:#727272"/><circle cx="141.8" cy="118.1" r="48.7" style="fill:#4a9bff"/><path d="M91.5,139.4H53.6a3.5,3.5,0,0,0-3.5,3.5v5.4h0a3.6,3.6,0,0,0,3.5,3.6h44A57.9,57.9,0,0,1,91.5,139.4Z" transform="translate(-5 -4.5)" style="fill:#727272"/><path d="M195.7,90.6a3.5,3.5,0,0,0,1.5-2.9V82.3a3.5,3.5,0,0,0-3.5-3.6h-8.3A61.6,61.6,0,0,1,195.7,90.6Z" transform="translate(-5 -4.5)" style="fill:#727272"/><path d="M108.1,78.7H53.6a3.6,3.6,0,0,0-3.5,3.6v5.4h0a3.5,3.5,0,0,0,3.5,3.5H97.4A63.8,63.8,0,0,1,108.1,78.7Z" transform="translate(-5 -4.5)" style="fill:#727272"/><path d="M123.5,151a5.2,5.2,0,0,1-5.1-5.2,4.8,4.8,0,0,1,1.5-3.6l37.6-37.6h-29a5,5,0,0,1-5.2-4.8v-.4a5,5,0,0,1,4.8-5.1H163a12.3,12.3,0,0,1,12.1,12v34.6a5.2,5.2,0,0,1-10.4,0v-29l-37.5,37.5A5.2,5.2,0,0,1,123.5,151Z" transform="translate(-5 -4.5)" style="fill:#fff"/><rect x="3" y="3" width="33.6" height="33.63" rx="8.1" style="fill:none;stroke:#727272;stroke-miterlimit:10;stroke-width:6px"/><rect x="3" y="63.6" width="33.6" height="33.63" rx="8.1" style="fill:none;stroke:#727272;stroke-miterlimit:10;stroke-width:6px"/><rect x="3" y="124.3" width="33.6" height="33.63" rx="8.1" style="fill:none;stroke:#727272;stroke-miterlimit:10;stroke-width:6px"/></svg>