<?xml version="1.0" standalone="no"?><!DOCTYPE svg PUBLIC "-//W3C//DTD SVG 1.1//EN" "http://www.w3.org/Graphics/SVG/1.1/DTD/svg11.dtd"><svg t="1644767255555" class="icon" viewBox="0 0 1024 1024" version="1.1" xmlns="http://www.w3.org/2000/svg" p-id="11276" xmlns:xlink="http://www.w3.org/1999/xlink" width="200" height="200"><defs><style type="text/css"></style></defs><path d="M76.844522 542.45287a22.26087 22.26087 0 0 0-2.048 38.288695l225.413565 150.216348 28.360348 170.073044a22.26087 22.26087 0 0 0 41.049043 7.835826l90.112-150.216348 289.52487 206.803478a22.26087 22.26087 0 0 0 34.816-13.935304l164.908522-865.903305-872.18087 456.837566z m182.628174 214.861913l-209.341218-139.575653a66.782609 66.782609 0 0 1 6.054957-114.732521L1009.975652 3.428174l-182.182956 956.416a66.782609 66.782609 0 0 1-104.403479 41.850435l-250.301217-178.754783-65.313391 108.811131a66.782609 66.782609 0 0 1-123.102609-23.373914l-25.199304-151.06226z" p-id="11277"></path><path d="M282.89113 772.630261l712.347827-712.347826-31.521392-31.521392-712.347826 712.347827z" p-id="11278"></path><path d="M476.91687 813.990957l520.904347-756.869566a22.26087 22.26087 0 1 0-36.685913-25.199304l-520.904347 756.869565a22.26087 22.26087 0 1 0 36.685913 25.199305z" p-id="11279"></path></svg>