<svg xmlns="http://www.w3.org/2000/svg" width="175" height="175" viewBox="0 0 175 175"><path d="M93.77,37.54v0H37.52V50h68.73V37.54Z" transform="translate(-12.5 -12.5)" style="fill:#030000"/><path d="M114.39,37.5c9.28,0,16.86,7.25,16.86,16.15h0V87.5h-25v81.25H29.37c-9.29,0-16.87-7.25-16.87-16.15V53.65c0-8.9,7.58-16.15,16.87-16.15Z" transform="translate(-12.5 -12.5)" style="fill:#e6c27c"/><path d="M106.27,50V37.54" transform="translate(-12.5 -12.5)" style="fill:#e6c27c"/><path d="M90.9,12.52l-38,0A2.88,2.88,0,0,0,50,15.39l0,19.23a2.88,2.88,0,0,1-2.88,2.88H40.41a2.89,2.89,0,0,0-2.89,2.89V65.05a2.88,2.88,0,0,0,2.88,2.88l63,0a2.88,2.88,0,0,0,2.88-2.89l0-15.08V40.43a2.89,2.89,0,0,0-2.89-2.89H96.66a2.89,2.89,0,0,1-2.89-2.89l0-19.24A2.89,2.89,0,0,0,90.9,12.52ZM62.52,34.62V27.89A2.89,2.89,0,0,1,65.41,25l13,0a2.88,2.88,0,0,1,2.88,2.88v6.73a2.89,2.89,0,0,1-2.89,2.89h-13A2.9,2.9,0,0,1,62.52,34.62Z" transform="translate(-12.5 -12.5)" style="fill:#727272"/><path d="M93.77,78.39V184.11a3.39,3.39,0,0,0,3.39,3.39h59.3a3.36,3.36,0,0,0,2.58-1.19L186.69,154a3.42,3.42,0,0,0,.81-2.21V78.39A3.39,3.39,0,0,0,184.11,75h-87A3.39,3.39,0,0,0,93.77,78.39Zm15.89,9.11h62A3.39,3.39,0,0,1,175,90.89v43.22a3.39,3.39,0,0,1-3.39,3.39H144.43a3.39,3.39,0,0,0-3.39,3.39v30.72a3.4,3.4,0,0,1-3.4,3.39h-28a3.39,3.39,0,0,1-3.39-3.39V90.89A3.39,3.39,0,0,1,109.66,87.5Zm43.88,76.82V153.39a3.39,3.39,0,0,1,3.39-3.39h9.34a3.4,3.4,0,0,1,2.58,5.6l-9.34,10.92A3.39,3.39,0,0,1,153.54,164.32Z" transform="translate(-12.5 -12.5)" style="fill:#727272"/><path d="M122,100h36.94a3.39,3.39,0,0,1,3.39,3.39v5.72a3.39,3.39,0,0,1-3.39,3.39H122a3.4,3.4,0,0,1-3.4-3.39v-5.72A3.4,3.4,0,0,1,122,100Zm0,18.75h36.94a3.39,3.39,0,0,1,3.39,3.39v5.72a3.39,3.39,0,0,1-3.39,3.39H122a3.4,3.4,0,0,1-3.4-3.39v-5.72A3.4,3.4,0,0,1,122,118.75Z" transform="translate(-12.5 -12.5)" style="fill:#557fff"/></svg>