<svg xmlns="http://www.w3.org/2000/svg" width="175" height="175.48" viewBox="0 0 175 175.48"><path d="M81.27,25H25V37.5H93.75V25Z" transform="translate(0 -0.02)" style="fill:#030000"/><path d="M101.89,25c9.28,0,16.86,7.25,16.86,16.15h0V69.42H87.5v86.83H16.87C7.58,156.25,0,149,0,140.1V41.15C0,32.25,7.58,25,16.87,25Z" transform="translate(0 -0.02)" style="fill:#e6c27c"/><path d="M93.77,37.5V25" transform="translate(0 -0.02)" style="fill:#e6c27c"/><path d="M78.4,0h-38a2.88,2.88,0,0,0-2.9,2.86h0V22.12A2.88,2.88,0,0,1,34.62,25H27.91A2.89,2.89,0,0,0,25,27.89V52.55a2.88,2.88,0,0,0,2.88,2.88h63a2.88,2.88,0,0,0,2.88-2.88h0V27.93A2.89,2.89,0,0,0,90.89,25H84.16a2.89,2.89,0,0,1-2.89-2.89V2.91A2.89,2.89,0,0,0,78.4,0ZM50,22.12V15.39a2.89,2.89,0,0,1,2.89-2.89h13a2.88,2.88,0,0,1,2.88,2.88v6.73A2.89,2.89,0,0,1,65.9,25h-13A2.89,2.89,0,0,1,50,22.12Z" transform="translate(0 -0.02)" style="fill:#727272"/><path d="M160.47,62.5H95.8A14.54,14.54,0,0,0,81.27,77V161A14.53,14.53,0,0,0,95.8,175.5h64.67A14.53,14.53,0,0,0,175,161V77A14.54,14.54,0,0,0,160.47,62.5ZM165.31,161a4.84,4.84,0,0,1-4.84,4.84H95.8A4.84,4.84,0,0,1,91,161V77a4.83,4.83,0,0,1,4.84-4.84h64.67A4.83,4.83,0,0,1,165.31,77Z" transform="translate(0 -0.02)" style="fill:#212121"/><path d="M101.67,91h22.65A2.65,2.65,0,0,1,127,93.63v4a2.64,2.64,0,0,1-2.64,2.64H101.67A2.64,2.64,0,0,1,99,97.67h0v-4A2.65,2.65,0,0,1,101.67,91Zm.14,23.74H148a2.65,2.65,0,0,1,2.65,2.64h0v4A2.65,2.65,0,0,1,148,124H101.85a2.64,2.64,0,0,1-2.64-2.64h0v-4A2.64,2.64,0,0,1,101.81,114.72Zm0,23H148a2.65,2.65,0,0,1,2.65,2.64h0v4A2.65,2.65,0,0,1,148,147H101.85a2.64,2.64,0,0,1-2.64-2.64h0v-4A2.64,2.64,0,0,1,101.81,137.71Z" transform="translate(0 -0.02)" style="fill:#557fff"/></svg>