<svg xmlns="http://www.w3.org/2000/svg" width="177.91" height="177.91" viewBox="0 0 177.91 177.91"><path d="M74.34,125.65h0a5,5,0,0,1,0,7.12L20.69,186.42a5,5,0,0,1-7.13,0h0a5,5,0,0,1,0-7.12l53.65-53.65A5,5,0,0,1,74.34,125.65Z" transform="translate(-12.09 -9.99)" style="fill:#727272"/><path d="M122.18,180.4a5.07,5.07,0,0,1-3.57-1.47L21.07,81.38a5,5,0,0,1,3.79-8.6L75,75l33.71-33.74L118,13.45a5,5,0,0,1,8.35-2l62.23,62.22a5.06,5.06,0,0,1,0,7.14,4.93,4.93,0,0,1-2,1.21l-27.8,9.23L125,124.94l2.24,50.19a5,5,0,0,1-4.81,5.25h-.2Zm-84.82-97,79.19,79.21-1.76-39.45a5.07,5.07,0,0,1,1.47-3.8l36.22-36.07a5.08,5.08,0,0,1,2-1.21l21.18-7L125,24.39l-7,21.17a4.85,4.85,0,0,1-1.22,2L80.56,83.69a5.13,5.13,0,0,1-3.78,1.47L37.36,83.44Z" transform="translate(-12.09 -9.99)" style="fill:#557fff"/></svg>