<svg xmlns="http://www.w3.org/2000/svg" width="160.97" height="187.87" viewBox="0 0 160.97 187.87"><path d="M152.23,12.5H49.79C37.27,12.5,27,24.61,27,39.4V160.47c0,14.8,10.24,26.9,22.76,26.9H152.23c12.53,0,22.77-12.1,22.77-26.9V39.4C175,24.61,164.76,12.5,152.23,12.5Z" transform="translate(-20.53 -6)" style="fill:none;stroke:#727272;stroke-miterlimit:10;stroke-width:13px"/><circle cx="32.74" cy="144.42" r="8.1" style="fill:#557fff"/><circle cx="32.74" cy="95.85" r="8.1" style="fill:#557fff"/><circle cx="32.74" cy="47.27" r="8.1" style="fill:#557fff"/><path d="M150.42,158.52H85.65a8.1,8.1,0,0,1,0-16.19h64.77a8.1,8.1,0,1,1,0,16.19Z" transform="translate(-20.53 -6)" style="fill:#557fff"/><path d="M150.42,109.94H85.65a8.1,8.1,0,0,1,0-16.19h64.77a8.1,8.1,0,1,1,0,16.19Z" transform="translate(-20.53 -6)" style="fill:#557fff"/><path d="M150.42,61.37H85.65a8.1,8.1,0,0,1,0-16.2h64.77a8.1,8.1,0,1,1,0,16.2Z" transform="translate(-20.53 -6)" style="fill:#557fff"/></svg>