<svg xmlns="http://www.w3.org/2000/svg" width="160" height="186.87" viewBox="0 0 160 186.87"><path d="M131.7,6.5H29.26C16.74,6.5,6.47,18.61,6.47,33.4V154.47c0,14.8,10.24,26.9,22.76,26.9H131.7c12.53,0,22.77-12.1,22.77-26.9V33.4C154.47,18.61,144.23,6.5,131.7,6.5Z" transform="translate(-0.47 -0.5)" style="fill:none;stroke:#727272;stroke-miterlimit:10;stroke-width:12px"/><circle cx="40.89" cy="137" r="6.95" style="fill:#557fff"/><circle cx="40.89" cy="95.35" r="6.95" style="fill:#557fff"/><circle cx="40.89" cy="53.7" r="6.95" style="fill:#557fff"/><path d="M119.36,144.44H63.83a6.94,6.94,0,0,1,0-13.88h55.53a6.94,6.94,0,1,1,.49,13.88Z" transform="translate(-0.47 -0.5)" style="fill:#557fff"/><path d="M119.36,102.79H63.83a6.95,6.95,0,0,1,0-13.89h55.53a6.95,6.95,0,1,1,.49,13.89Z" transform="translate(-0.47 -0.5)" style="fill:#557fff"/><path d="M119.36,61.14H63.83a6.95,6.95,0,1,1,0-13.89h55.53a6.95,6.95,0,1,1,0,13.89Z" transform="translate(-0.47 -0.5)" style="fill:#557fff"/></svg>