<?xml version="1.0" standalone="no"?><!DOCTYPE svg PUBLIC "-//W3C//DTD SVG 1.1//EN" "http://www.w3.org/Graphics/SVG/1.1/DTD/svg11.dtd"><svg t="1647157887561" class="icon" viewBox="0 0 1024 1024" version="1.1" xmlns="http://www.w3.org/2000/svg" p-id="2320" xmlns:xlink="http://www.w3.org/1999/xlink" width="200" height="200"><defs><style type="text/css"></style></defs><path d="M802.048 584.533333l-1.365333 4.352-3.328 11.434667a298.666667 298.666667 0 1 1-57.856-281.856h-66.304a42.666667 42.666667 0 1 0 0 85.333333h170.666666a42.496 42.496 0 0 0 28.330667-10.752l3.584-3.541333a42.496 42.496 0 0 0 10.752-28.373333v-170.666667a42.666667 42.666667 0 0 0-85.333333 0l0.042666 68.949333a384 384 0 1 0 82.176 350.293334 42.666667 42.666667 0 1 0-81.365333-25.173334z" fill="#000000" fill-opacity=".87" p-id="2321"></path></svg>