<svg xmlns="http://www.w3.org/2000/svg" width="175" height="150" viewBox="0 0 175 150"><rect x="150" y="50" width="25" height="63.75" rx="4.5" style="fill:#727272"/><path d="M108,125H29.5a4.51,4.51,0,0,1-4.5-4.5V92a4.51,4.51,0,0,1,4.5-4.5H108a4.51,4.51,0,0,0,4.5-4.5V79.5A4.51,4.51,0,0,0,108,75H17a4.51,4.51,0,0,0-4.5,4.5v54.75a4.51,4.51,0,0,0,4.5,4.5h91a4.51,4.51,0,0,0,4.5-4.5V129.5A4.51,4.51,0,0,0,108,125Z" transform="translate(-12.5 -25)" style="fill:#727272"/><path d="M154.5,37.5H158a4.51,4.51,0,0,0,4.5-4.5V29.5A4.51,4.51,0,0,0,158,25H129.5a4.51,4.51,0,0,0-4.5,4.5V33a4.51,4.51,0,0,0,4.5,4.5H133a4.51,4.51,0,0,1,4.5,4.5V158a4.51,4.51,0,0,1-4.5,4.5h-3.5A4.51,4.51,0,0,0,125,167v3.5a4.51,4.51,0,0,0,4.5,4.5H158a4.51,4.51,0,0,0,4.5-4.5V167a4.51,4.51,0,0,0-4.5-4.5h-3.5A4.51,4.51,0,0,1,150,158V42A4.51,4.51,0,0,1,154.5,37.5Z" transform="translate(-12.5 -25)" style="fill:#557fff"/></svg>