<svg xmlns="http://www.w3.org/2000/svg" width="185.82" height="170.71" viewBox="0 0 185.82 170.71"><path d="M56.19,14.9A17.35,17.35,0,0,1,72.66,3h71.78a17.34,17.34,0,0,1,17.38,17.3V129.23a17.34,17.34,0,0,1-17.34,17.34H72.66a17.34,17.34,0,0,1-17.34-17.34V65.78" transform="translate(0 0)" style="fill:none;stroke:#727272;stroke-linecap:round;stroke-miterlimit:10;stroke-width:6px"/><path d="M82,129.35A52.1,52.1,0,1,0,19.39,90.43h0L3.5,74.12" transform="translate(0 0)" style="fill:none;stroke:#557fff;stroke-linecap:round;stroke-linejoin:round;stroke-width:7px"/><line x1="19.39" y1="90.43" x2="32.02" y2="70.74" style="fill:none;stroke:#557fff;stroke-linecap:round;stroke-miterlimit:10;stroke-width:7px"/><path d="M182.82,34.48V149.41a18.3,18.3,0,0,1-18.3,18.3H88.72" transform="translate(0 0)" style="fill:none;stroke:#727272;stroke-linecap:round;stroke-miterlimit:10;stroke-width:6px"/></svg>