<svg xmlns="http://www.w3.org/2000/svg" width="200" height="174.35" viewBox="0 0 200 174.35"><path d="M70.32,104.62a8.68,8.68,0,0,1-1.53,10.17l-29.7,29.77a5,5,0,0,1-6.88,0L2.53,114.79A8.68,8.68,0,0,1,1,104.62H1A8.69,8.69,0,0,1,8.67,100h17a87.17,87.17,0,0,1,89.27-87.15c46.25,1.09,84,38.8,85.06,85.05a87.18,87.18,0,0,1-87.16,89.28,86.12,86.12,0,0,1-50-15.79,4.92,4.92,0,0,1-2-3.59A4.83,4.83,0,0,1,62.16,164l7-7.07a4.84,4.84,0,0,1,6.1-.59,66.82,66.82,0,0,0,37.58,11.43A67.8,67.8,0,1,0,45,100H62.65a8.67,8.67,0,0,1,7.67,4.62Z" transform="translate(0 -12.82)"/></svg>