<svg xmlns="http://www.w3.org/2000/svg" width="185.79" height="170.71" viewBox="0 0 185.79 170.71"><path d="M59.37,16.72A17.35,17.35,0,0,1,75.84,4.82h71.78A17.34,17.34,0,0,1,165,22.16V131.05a17.34,17.34,0,0,1-17.34,17.34H75.84A17.34,17.34,0,0,1,58.5,131.05V67.6" transform="translate(-3.18 -1.82)" style="fill:none;stroke:#727272;stroke-linecap:round;stroke-miterlimit:10;stroke-width:6px"/><path d="M85.13,131.17A52.1,52.1,0,1,0,22.57,92.25L6.68,75.94" transform="translate(-3.18 -1.82)" style="fill:none;stroke:#557fff;stroke-linecap:round;stroke-linejoin:round;stroke-width:7px"/><line x1="19.39" y1="90.43" x2="32.02" y2="70.74" style="fill:none;stroke:#557fff;stroke-linecap:round;stroke-miterlimit:10;stroke-width:7px"/><path d="M186,36.3V151.23a18.3,18.3,0,0,1-18.3,18.3H91.9" transform="translate(-3.18 -1.82)" style="fill:none;stroke:#727272;stroke-linecap:round;stroke-miterlimit:10;stroke-width:6px"/></svg>