<svg xmlns="http://www.w3.org/2000/svg" width="38.36" height="40" viewBox="0 0 38.36 40"><path d="M24,16.5A7.5,7.5,0,1,0,31.5,24,7.5,7.5,0,0,0,24,16.5ZM24,29a5,5,0,1,1,5-5A5,5,0,0,1,24,29Z" transform="translate(-4.82 -4)" style="fill:#7480ff"/><path d="M43.08,28.67a1.87,1.87,0,0,0-.69-1L39.9,25.88a2.31,2.31,0,0,1-1-1.88,2.43,2.43,0,0,1,.25-1.06,2.37,2.37,0,0,1,.71-.83l2.49-1.83a2,2,0,0,0,.69-1,2,2,0,0,0,0-1.18,20.4,20.4,0,0,0-4.52-7.78,1.93,1.93,0,0,0-1-.57,2,2,0,0,0-1.17.12l-2.81,1.24a2.24,2.24,0,0,1-.92.2,2.34,2.34,0,0,1-2.32-2.09L30,6.2a2,2,0,0,0-.48-1.08,2,2,0,0,0-1-.6A21.74,21.74,0,0,0,24,4a21.94,21.94,0,0,0-4.5.52,1.94,1.94,0,0,0-1,.6A1.9,1.9,0,0,0,18,6.2l-.34,3.06a2.41,2.41,0,0,1-.77,1.49,2.57,2.57,0,0,1-1.57.6,2.24,2.24,0,0,1-.92-.2l-2.8-1.23a2,2,0,0,0-1.17-.13,1.93,1.93,0,0,0-1,.58,20.17,20.17,0,0,0-4.51,7.78,1.9,1.9,0,0,0,0,1.18,1.87,1.87,0,0,0,.69,1L8.1,22.12a2.45,2.45,0,0,1,.7.83A2.35,2.35,0,0,1,9.05,24a2.43,2.43,0,0,1-.25,1.06,2.55,2.55,0,0,1-.7.83L5.61,27.72a2,2,0,0,0-.7,2.14,20.17,20.17,0,0,0,4.51,7.78,1.69,1.69,0,0,0,.64.45,1.88,1.88,0,0,0,.77.17,1.92,1.92,0,0,0,.78-.17l2.82-1.23a2.24,2.24,0,0,1,.92-.2h0a2.33,2.33,0,0,1,1.55.6,2.36,2.36,0,0,1,.77,1.48l.34,3a1.9,1.9,0,0,0,.47,1.07,2,2,0,0,0,1,.61,19.45,19.45,0,0,0,9,0,2,2,0,0,0,1-.61A1.86,1.86,0,0,0,30,41.79l.34-3.07a2.31,2.31,0,0,1,2.19-2.07,2.28,2.28,0,0,1,1.06.2l2.81,1.23a1.89,1.89,0,0,0,.78.17,2,2,0,0,0,.77-.16,1.88,1.88,0,0,0,.65-.46,20.17,20.17,0,0,0,4.51-7.78A1.9,1.9,0,0,0,43.08,28.67Zm-6,7L34.6,34.56a4.81,4.81,0,0,0-6,1.78,4.87,4.87,0,0,0-.75,2.12l-.29,2.66a17,17,0,0,1-7.1,0l-.31-2.66a4.85,4.85,0,0,0-4.8-4.3h0a4.72,4.72,0,0,0-1.92.4L11,35.63a17.94,17.94,0,0,1-3.56-6.14l2.17-1.6A4.93,4.93,0,0,0,11,26.17a4.91,4.91,0,0,0,0-4.36A4.89,4.89,0,0,0,9.58,20.1L7.41,18.5A17.92,17.92,0,0,1,11,12.36l2.44,1.07a4.71,4.71,0,0,0,1.93.41h0a4.87,4.87,0,0,0,4.81-4.32l.3-2.66A19.28,19.28,0,0,1,24,6.49a19,19,0,0,1,3.53.37l.3,2.66a4.84,4.84,0,0,0,1.58,3.08,4.89,4.89,0,0,0,3.22,1.24,4.39,4.39,0,0,0,2-.42L37,12.35a17.78,17.78,0,0,1,3.56,6.14l-2.16,1.6A4.82,4.82,0,0,0,37,26.18a4.88,4.88,0,0,0,1.45,1.71l2.17,1.6A18.11,18.11,0,0,1,37,35.63Z" transform="translate(-4.82 -4)" style="fill:#212121"/></svg>