<svg xmlns="http://www.w3.org/2000/svg" width="183.07" height="172.86" viewBox="0 0 183.07 172.86"><path d="M129.14,171.56a1.56,1.56,0,0,0,.7.17h0l21.51-11.1a36.86,36.86,0,0,1-2.89-13.15,34.25,34.25,0,0,1,32.43-34.13c.25-1.42,1.87-9.48,1.87-15.52a94.67,94.67,0,0,0-1.87-15.51A34.26,34.26,0,0,1,148.5,48.19,37,37,0,0,1,151.39,35L130.22,23.66h-.09a1.58,1.58,0,0,0-.81.22,84.21,84.21,0,0,1-7.83,6.19A30.83,30.83,0,0,1,103.15,36a30.88,30.88,0,0,1-18.48-6.07c-4.44-3.16-7.53-5.55-7.87-5.92A1.7,1.7,0,0,0,76,23.8h-.08L54,35.06A36.56,36.56,0,0,1,56.88,48.2,34.23,34.23,0,0,1,24.45,82.33a104.57,104.57,0,0,0-1.67,15.52,101.52,101.52,0,0,0,1.67,15.52A34.23,34.23,0,0,1,56.88,147.5,36.86,36.86,0,0,1,54,160.67l20.75,11a1.61,1.61,0,0,0,.73-.18,89.47,89.47,0,0,1,7.94-6.38c6.66-4.88,13-5.61,18.8-5.61s12.24.79,18.93,5.75c4.49,3.33,7.62,5.9,8,6.32m1,12.55a11.76,11.76,0,0,1-8.66-3.68c-2.85-3.13-11.88-9.51-19.26-9.51s-16.51,6.81-19.14,9.66a11.71,11.71,0,0,1-8.6,3.44,11.16,11.16,0,0,1-4.42-.7l-.23-.09L47.35,170.29l-.22-.16a10.75,10.75,0,0,1-3.63-13,26.91,26.91,0,0,0,2.07-9.1,23.82,23.82,0,0,0-23.82-23.77h-.92c-3.76,0-6.83-3.34-7.81-8.5a115.39,115.39,0,0,1-1.91-17.94A116.07,116.07,0,0,1,13,79.9c1-5.22,4.12-8.57,7.94-8.5h.79A23.82,23.82,0,0,0,45.57,47.63a26.63,26.63,0,0,0-2.09-9.1,10.75,10.75,0,0,1,3.65-13l.22-.15,23.7-13.19.25-.1a11.34,11.34,0,0,1,4.34-.84A12.19,12.19,0,0,1,84.26,15c2.82,2.93,11.68,9.6,18.86,9.6S119,17.88,121.84,15a12.17,12.17,0,0,1,8.56-3.66,10.84,10.84,0,0,1,4.42.89l.22.1,22.89,13.09.23.15a10.76,10.76,0,0,1,3.62,13,27.12,27.12,0,0,0-2.06,9.1,23.82,23.82,0,0,0,23.82,23.77h.78c3.82-.08,7,3.28,8,8.5a116.72,116.72,0,0,1,1.91,17.93,117.07,117.07,0,0,1-1.91,17.93c-1,5.23-4.13,8.58-8,8.5h-.78a23.82,23.82,0,0,0-23.82,23.78,26.8,26.8,0,0,0,2.08,9.1,10.72,10.72,0,0,1-3.64,13l-.23.16-23.23,12.8-.25.1a10.53,10.53,0,0,1-4.32.88" transform="translate(-11.11 -11.25)" style="fill:#727272"/><path d="M102.69,122.47a24.65,24.65,0,1,1,24.66-24.64,24.64,24.64,0,0,1-24.66,24.64m0-61.64a37,37,0,1,0,37,37,37,37,0,0,0-37-37" transform="translate(-11.11 -11.25)" style="fill:#557fff"/></svg>