<svg xmlns="http://www.w3.org/2000/svg" width="23" height="22" viewBox="0 0 23 22"><path d="M18.27,3.21l7.5,7.25a.74.74,0,0,1,.17.25.73.73,0,0,1,0,.58.74.74,0,0,1-.17.25l-7.5,7.25A.78.78,0,0,1,18,19a.87.87,0,0,1-.28.05.72.72,0,0,1-.29-.06.69.69,0,0,1-.33-.28.67.67,0,0,1-.13-.41V14.51c-6.7.27-9.52,4-9.64,4.18A.79.79,0,0,1,7,19a.72.72,0,0,1-.46,0,.79.79,0,0,1-.38-.27A.77.77,0,0,1,6,18.25c0-8,6.59-10.48,11-10.73V3.75a.67.67,0,0,1,.13-.41.69.69,0,0,1,.33-.28.73.73,0,0,1,.81.15Z" transform="translate(-3 -3)" style="fill:#557fff"/><path d="M7.75,4A4.75,4.75,0,0,0,3,8.75v11.5A4.75,4.75,0,0,0,7.75,25h11.5A4.75,4.75,0,0,0,24,20.25v-.5a.75.75,0,0,0-1.5,0v.5a3.25,3.25,0,0,1-3.25,3.25H7.75A3.25,3.25,0,0,1,4.5,20.25V8.75A3.26,3.26,0,0,1,7.75,5.5h4.5a.75.75,0,0,0,0-1.5Z" transform="translate(-3 -3)" style="fill:#212121"/></svg>