<svg xmlns="http://www.w3.org/2000/svg" width="23" height="22" viewBox="0 0 23 22"><path d="M25.94,10.71a.74.74,0,0,0-.17-.25l-7.5-7.25a.73.73,0,0,0-.81-.15.69.69,0,0,0-.33.28.67.67,0,0,0-.13.41V7.52c-4.41.25-11,2.71-11,10.73a.77.77,0,0,0,.14.44.79.79,0,0,0,.38.27A.72.72,0,0,0,7,19a.79.79,0,0,0,.38-.27c.12-.16,2.94-3.91,9.64-4.18v3.74a.67.67,0,0,0,.13.41.69.69,0,0,0,.33.28.72.72,0,0,0,.29.06A.87.87,0,0,0,18,19a.78.78,0,0,0,.24-.16l7.5-7.25a.74.74,0,0,0,.17-.25.73.73,0,0,0,0-.58ZM18.5,16.46V13.75a.75.75,0,0,0-.75-.75A15.6,15.6,0,0,0,7.66,16.28C8.9,9.22,16.78,9,17.75,9a.75.75,0,0,0,.75-.75V5.52L24.17,11Z" transform="translate(-3 -3)" style="fill:#557fff"/><path d="M22.72,19.22a.75.75,0,0,1,1.28.53v.5A4.75,4.75,0,0,1,19.25,25H7.75A4.75,4.75,0,0,1,3,20.25V8.75A4.75,4.75,0,0,1,7.75,4h4.5a.75.75,0,0,1,0,1.5H7.75A3.26,3.26,0,0,0,4.5,8.75v11.5A3.24,3.24,0,0,0,7.75,23.5h11.5a3.24,3.24,0,0,0,3.25-3.25v-.5A.75.75,0,0,1,22.72,19.22Z" transform="translate(-3 -3)" style="fill:#212121"/></svg>