<svg xmlns="http://www.w3.org/2000/svg" width="185" height="185" viewBox="0 0 185 185"><path d="M145,192.5H35A27.21,27.21,0,0,1,7.5,165V55A27.21,27.21,0,0,1,35,27.5h65a7.25,7.25,0,0,1,7.5,7.5,7.25,7.25,0,0,1-7.5,7.5H35A12.83,12.83,0,0,0,22.5,55V165A12.83,12.83,0,0,0,35,177.5H145A12.83,12.83,0,0,0,157.5,165V100a7.5,7.5,0,0,1,15,0v65A27.21,27.21,0,0,1,145,192.5Z" transform="translate(-7.5 -7.5)" style="fill:#727272"/><path d="M180,27,76,131a4.95,4.95,0,0,1-7-7L173,20H125a4.72,4.72,0,0,1-5-5,4.72,4.72,0,0,1,5-5h50a15.38,15.38,0,0,1,15,15V75a5,5,0,0,1-10,0Z" transform="translate(-7.5 -7.5)" style="fill:#557fff"/><path d="M72.5,135a7.48,7.48,0,0,1-5.27-12.75L167,22.5H125a7.25,7.25,0,0,1-7.5-7.5A7.25,7.25,0,0,1,125,7.5h50A18,18,0,0,1,192.5,25V75a7.5,7.5,0,0,1-15,0V33L77.77,132.77A7.41,7.41,0,0,1,72.5,135Z" transform="translate(-7.5 -7.5)" style="fill:#557fff"/></svg>