<svg xmlns="http://www.w3.org/2000/svg" width="115" height="155.5" viewBox="0 0 115 155.5"><rect x="3" y="3" width="109" height="109.06" rx="26.3" style="fill:none;stroke:#727272;stroke-miterlimit:10;stroke-width:6px"/><path d="M3.7,126.6H111.3a3.7,3.7,0,0,1,3.7,3.7h0v1.7a3.7,3.7,0,0,1-3.7,3.7H3.7A3.7,3.7,0,0,1,0,132.1H0v-1.7a3.6,3.6,0,0,1,3.6-3.8Z" transform="translate(0 0)" style="fill:#727272"/><path d="M20.5,146.3H94.4a3.7,3.7,0,0,1,3.7,3.7h0v1.8a3.7,3.7,0,0,1-3.7,3.7H20.5a3.8,3.8,0,0,1-3.7-3.7h0v-1.8a3.8,3.8,0,0,1,3.6-3.8Z" transform="translate(0 0)" style="fill:#727272"/></svg>