<svg xmlns="http://www.w3.org/2000/svg" width="78.36" height="88.83" viewBox="0 0 78.36 88.83"><rect x="10.32" y="3.5" width="56.91" height="56.94" rx="13.73" style="fill:none;stroke:#727272;stroke-miterlimit:10;stroke-width:7px"/><path d="M12.35,76.44H87.74a1.48,1.48,0,0,1,1.48,1.42h0v1.72A1.48,1.48,0,0,1,87.74,81H12.35a1.49,1.49,0,0,1-1.49-1.42h0V77.86a1.49,1.49,0,0,1,1.43-1.48Z" transform="translate(-10.86 -5.56)" style="fill:#727272"/><path d="M25.72,89.63l48.38.19a1.49,1.49,0,0,1,1.48,1.43h0V93a1.5,1.5,0,0,1-1.49,1.42L25.7,94.2a1.49,1.49,0,0,1-1.48-1.43h0V91.05a1.49,1.49,0,0,1,1.43-1.48Z" transform="translate(-10.86 -5.56)" style="fill:#727272"/></svg>