<svg xmlns="http://www.w3.org/2000/svg" width="78.36" height="88.86" viewBox="0 0 78.36 88.86"><rect x="10.32" y="3.5" width="56.91" height="56.94" rx="13.73" style="fill:none;stroke:#4678c8;stroke-miterlimit:10;stroke-width:7px"/><path d="M1.49,70.88H76.88a1.48,1.48,0,0,1,1.48,1.42h0V74a1.48,1.48,0,0,1-1.48,1.42H1.49A1.49,1.49,0,0,1,0,74H0V72.3a1.48,1.48,0,0,1,1.43-1.48Z" transform="translate(0)" style="fill:#727272"/><path d="M14.86,84.07l48.38.19a1.48,1.48,0,0,1,1.48,1.43h0v1.75a1.5,1.5,0,0,1-1.49,1.42l-48.39-.22a1.48,1.48,0,0,1-1.48-1.43h0V85.49A1.48,1.48,0,0,1,14.79,84Z" transform="translate(0)" style="fill:#727272"/></svg>