<svg xmlns="http://www.w3.org/2000/svg" width="109.68" height="167.16" viewBox="0 0 109.68 167.16"><path d="M67.57,29h13L98.06,83.79H86.52L82.67,69.73H65L61.14,83.79H50ZM80.38,61.22l-1.63-6c-1.7-5.7-3.18-12.06-4.81-17.91h-.3c-1.48,6-3,12.21-4.66,17.91l-1.63,6Z" transform="translate(-50.04 -16.42)" style="fill:#727272"/><path d="M53.51,166l25.54-39.08H56v-9.17H92.51v6.58L67,163.42H92.74v9.17H53.51Z" transform="translate(-50.04 -16.42)" style="fill:#557fff"/><path d="M112.72,178.07V21.92a5.5,5.5,0,0,1,5.5-5.5h0a5.5,5.5,0,0,1,5.5,5.5V143.71a5.5,5.5,0,0,0,10,3.19l16-22.48a5.49,5.49,0,0,1,7.67-1.28h0a5.51,5.51,0,0,1,1.29,7.67l-36,50.46A5.5,5.5,0,0,1,112.72,178.07Z" transform="translate(-50.04 -16.42)" style="fill:#727272"/></svg>