<svg xmlns="http://www.w3.org/2000/svg" width="109.66" height="167.13" viewBox="0 0 109.66 167.13"><path d="M3.47,60.81,29,21.73H6V12.56H42.47v6.58L17,58.23H42.7v9.16H3.47Z" style="fill:#557fff"/><path d="M62.68,161.65V5.5A5.5,5.5,0,0,1,68.18,0h0a5.5,5.5,0,0,1,5.5,5.5V127.29a5.5,5.5,0,0,0,10,3.19l16-22.48a5.49,5.49,0,0,1,7.66-1.29h0a5.51,5.51,0,0,1,1.29,7.67l-36,50.46a5.5,5.5,0,0,1-10-3.2Z" style="fill:#727272"/><path d="M17.57,101.23h13L48.06,156H36.52L32.67,142H15L11.14,156H0Zm12.81,32.22-1.63-6c-1.7-5.7-3.18-12.06-4.81-17.91h-.3c-1.48,6-3,12.21-4.66,17.91l-1.63,6Z" style="fill:#727272"/></svg>