<svg xmlns="http://www.w3.org/2000/svg" width="109.7" height="167.13" viewBox="0 0 109.7 167.13"><path d="M17.53,12.58h13L48,67.37H36.48L32.63,53.31H15L11.1,67.37H0ZM30.34,44.8l-1.63-6C27,33.1,25.53,26.74,23.9,20.89h-.3c-1.48,6-3,12.21-4.66,17.91l-1.63,6Z" transform="translate(0.04)" style="fill:#727272"/><path d="M3.47,149.58,29,110.5H6v-9.17H42.47v6.58L17,147H42.7v9.17H3.47Z" transform="translate(0.04)" style="fill:#557fff"/><path d="M62.68,161.65V5.5A5.5,5.5,0,0,1,68.18,0h0a5.5,5.5,0,0,1,5.5,5.5V127.29a5.5,5.5,0,0,0,10,3.19l16-22.48a5.49,5.49,0,0,1,7.66-1.29h0a5.51,5.51,0,0,1,1.29,7.67l-36,50.46a5.5,5.5,0,0,1-10-3.2Z" transform="translate(0.04)" style="fill:#727272"/></svg>