<svg xmlns="http://www.w3.org/2000/svg" width="546" height="546" viewBox="0 0 546 546"><rect x="11" y="277" width="521" height="253" style="fill:#3fa9f5"/><path d="M541.8,49A15.2,15.2,0,0,1,557,64.2V543.8A15.2,15.2,0,0,1,541.8,559H62.2A15.2,15.2,0,0,1,47,543.8V64.2A15.2,15.2,0,0,1,62.2,49H541.8m0-18H62.2A33.2,33.2,0,0,0,29,64.2V543.8A33.2,33.2,0,0,0,62.2,577H541.8A33.2,33.2,0,0,0,575,543.8V64.2A33.2,33.2,0,0,0,541.8,31Z" transform="translate(-29 -31)"/><line x1="541" y1="273" x2="11" y2="273" style="fill:#fff;stroke:#000;stroke-miterlimit:10;stroke-width:18px"/></svg>