<?xml version="1.0" encoding="UTF-8"?>
<svg xmlns="http://www.w3.org/2000/svg" xmlns:xlink="http://www.w3.org/1999/xlink" viewBox="0 0 44.8 44.67">
  <defs>
    <style>
      .cls-1 {
        isolation: isolate;
      }

      .cls-2 {
        fill: url(#_未命名的渐变_29);
      }

      .cls-3 {
        fill: #f2f2f2;
        mix-blend-mode: multiply;
        opacity: .69;
      }
    </style>
    <linearGradient id="_未命名的渐变_29" data-name="未命名的渐变 29" x1="34.97" y1="45.06" x2="12.21" y2="5.65" gradientUnits="userSpaceOnUse">
      <stop offset=".04" stop-color="#ffa410"/>
      <stop offset=".24" stop-color="#ffae0e"/>
      <stop offset=".69" stop-color="#ffc20b"/>
      <stop offset="1" stop-color="#ffca0a"/>
    </linearGradient>
  </defs>
  <g class="cls-1">
    <g id="_图层_1" data-name="图层 1">
      <path class="cls-2" d="M34.57,44.47l-11.46-6.33c-.44-.24-.98-.24-1.42,0l-11.46,6.33c-1.08,.59-2.36-.31-2.17-1.53l2.22-13.61c.08-.46-.07-.93-.4-1.27L.42,18.37c-.84-.86-.35-2.3,.83-2.49l12.96-1.98c.49-.07,.9-.39,1.11-.83L21.07,.85c.53-1.13,2.14-1.13,2.67,0l5.74,12.23c.21,.44,.63,.76,1.11,.83l12.96,1.98c1.19,.18,1.67,1.63,.83,2.49l-9.47,9.69c-.33,.33-.48,.8-.4,1.27l2.22,13.61c.2,1.21-1.09,2.12-2.17,1.53Z"/>
      <path class="cls-3" d="M44.37,18.31c.21-.22,.34-.48,.39-.74l-10.69,10.33c-.26,.24-.49,.57-.42,.92l2,13.13c.16,.95-.69,1.46-1.53,1l-11.18-5.86c-.47-.28-.98-.27-1.44,.02l-12.17,7.47c.29,.04,.59,0,.88-.17l11.47-6.33c.44-.24,.97-.24,1.4,0l11.62,6.42c1.01,.56,2.23-.3,2.04-1.44l-2.25-13.8c-.07-.45,.07-.92,.39-1.25l9.48-9.7Z"/>
    </g>
  </g>
</svg>