<svg xmlns="http://www.w3.org/2000/svg" width="99.74" height="58.8" viewBox="0 0 99.74 58.8"><path d="M35.33,23.89H98a1.8,1.8,0,0,1,1.79,1.78h0v2.77A1.79,1.79,0,0,1,98,30.23H35.33a1.79,1.79,0,0,1-1.79-1.79h0V25.73a1.77,1.77,0,0,1,1.72-1.83h.07Z" transform="translate(0 -13.16)" style="fill:#727272"/><rect x="3" y="3" width="21.79" height="21.82" rx="5.25" style="fill:none;stroke:#727272;stroke-miterlimit:10;stroke-width:6px"/><path d="M35.33,54.87H98a1.79,1.79,0,0,1,1.79,1.79h0v2.76A1.79,1.79,0,0,1,98,61.21H35.33a1.79,1.79,0,0,1-1.79-1.79h0V56.71a1.76,1.76,0,0,1,1.64-1.84Z" transform="translate(0 -13.16)" style="fill:#727272"/><rect x="3" y="33.98" width="21.79" height="21.82" rx="5.25" style="fill:none;stroke:#727272;stroke-miterlimit:10;stroke-width:6px"/></svg>