<svg xmlns="http://www.w3.org/2000/svg" width="192.2" height="120.2" viewBox="0 0 192.2 120.2"><path d="M57.7,16.1h131a3.5,3.5,0,0,1,3.5,3.5h0V31.1a3.5,3.5,0,0,1-3.5,3.5H57.7a3.5,3.5,0,0,1-3.5-3.5h0V19.7a3.6,3.6,0,0,1,3.4-3.6Z" style="fill:#727272"/><rect x="3" y="3" width="44.7" height="44.73" rx="10.8" style="fill:none;stroke:#727272;stroke-miterlimit:10;stroke-width:6px"/><path d="M57.7,85.6h131a3.5,3.5,0,0,1,3.5,3.5h0v11.4a3.5,3.5,0,0,1-3.5,3.5H57.7a3.5,3.5,0,0,1-3.5-3.5h0V89.2a3.5,3.5,0,0,1,3.4-3.6Z" style="fill:#727272"/><rect x="3" y="72.5" width="44.7" height="44.73" rx="10.8" style="fill:none;stroke:#727272;stroke-miterlimit:10;stroke-width:6px"/></svg>