<svg xmlns="http://www.w3.org/2000/svg" width="99.79" height="72.71" viewBox="0 0 99.79 72.71"><path d="M35.33,10.73H98a1.81,1.81,0,0,1,1.79,1.78h0v2.77A1.79,1.79,0,0,1,98,17.07H35.33a1.79,1.79,0,0,1-1.79-1.79h0V12.57a1.77,1.77,0,0,1,1.71-1.83h.08Z" style="fill:#727272"/><rect x="3" y="3" width="21.79" height="21.82" rx="5.25" style="fill:none;stroke:#4678c8;stroke-miterlimit:10;stroke-width:6px"/><path d="M35.33,55.62H98a1.79,1.79,0,0,1,1.79,1.79h0v2.76A1.79,1.79,0,0,1,98,62H35.33a1.79,1.79,0,0,1-1.79-1.79h0V57.46a1.75,1.75,0,0,1,1.64-1.84Z" style="fill:#727272"/><rect x="3" y="47.89" width="21.79" height="21.82" rx="5.25" style="fill:none;stroke:#4678c8;stroke-miterlimit:10;stroke-width:6px"/></svg>