<svg xmlns="http://www.w3.org/2000/svg" viewBox="0 0 150 200"><path d="M84.42,162.83a8.33,8.33,0,1,1,8.33,8.34h0A8.34,8.34,0,0,1,84.42,162.83ZM100,110.67a7.17,7.17,0,0,0-6.81-7.51,7.72,7.72,0,0,0-1.52.09A15.32,15.32,0,0,0,80.5,109L69.75,99.08A32,32,0,0,1,94.17,87.5c13.66,0,24.33,6.5,24.33,21.83s-18.5,19.84-17.42,34.42H84C81.33,126.75,100,119.67,100,110.67Zm61.08,75h-122V14.08H100V60.92A14.24,14.24,0,0,0,114.08,75h46.67ZM113.83,21.58,153.08,61H113.83Zm57,37.34L116.67,4.17a15,15,0,0,0-2.84-2.25L113,1.5h-.58A13.91,13.91,0,0,0,106.67,0H39.25A14.25,14.25,0,0,0,25,14.08V185.92A14.25,14.25,0,0,0,39.25,200H160.92A13.92,13.92,0,0,0,175,186.25V68.83a14,14,0,0,0-4.17-9.91Z" transform="translate(-25 0)" style="fill:#5e5c5c"/></svg>